<?xml version="1.0" encoding="UTF-8" standalone="no"?>
<!-- Created with Inkscape (http://www.inkscape.org/) -->

<svg
   width="102.13165mm"
   height="136.81328mm"
   viewBox="0 0 102.13165 136.81328"
   version="1.1"
   id="svg1"
   xml:space="preserve"
   inkscape:version="1.3.2 (091e20e, 2023-11-25, custom)"
   sodipodi:docname="Energia_Potencial.svg"
   xmlns:inkscape="http://www.inkscape.org/namespaces/inkscape"
   xmlns:sodipodi="http://sodipodi.sourceforge.net/DTD/sodipodi-0.dtd"
   xmlns="http://www.w3.org/2000/svg"
   xmlns:svg="http://www.w3.org/2000/svg"><sodipodi:namedview
     id="namedview1"
     pagecolor="#ffffff"
     bordercolor="#000000"
     borderopacity="0.25"
     inkscape:showpageshadow="2"
     inkscape:pageopacity="0.0"
     inkscape:pagecheckerboard="0"
     inkscape:deskcolor="#d1d1d1"
     inkscape:document-units="mm"
     inkscape:zoom="1.4485269"
     inkscape:cx="263.02583"
     inkscape:cy="264.75172"
     inkscape:window-width="1920"
     inkscape:window-height="1009"
     inkscape:window-x="-8"
     inkscape:window-y="-8"
     inkscape:window-maximized="1"
     inkscape:current-layer="layer1" /><defs
     id="defs1"><marker
       style="overflow:visible"
       id="Triangle"
       refX="0"
       refY="0"
       orient="auto-start-reverse"
       inkscape:stockid="Triangle arrow"
       markerWidth="1"
       markerHeight="1"
       viewBox="0 0 1 1"
       inkscape:isstock="true"
       inkscape:collect="always"
       preserveAspectRatio="xMidYMid"><path
         transform="scale(0.5)"
         style="fill:context-stroke;fill-rule:evenodd;stroke:context-stroke;stroke-width:1pt"
         d="M 5.77,0 -2.88,5 V -5 Z"
         id="path135" /></marker></defs><g
     inkscape:label="Camada 1"
     inkscape:groupmode="layer"
     id="layer1"
     transform="translate(-27.763854,-27.072891)"><g
       transform="matrix(0,-0.72537231,0.72537231,0,-48.280372,134.05095)"
       id="g6265"
       style="stroke-width:0.965022;stroke-dasharray:none"><path
         inkscape:export-ydpi="96"
         inkscape:export-xdpi="96"
         style="fill:#cccccc;fill-opacity:1;stroke:#000000;stroke-width:0.965022;stroke-miterlimit:4;stroke-dasharray:none"
         d="m 84.559426,162.90993 a 1.2824262,0.80917558 0 0 0 -1.28234,-0.80928 1.2824262,0.80917558 0 0 0 -1.28289,0.80928 1.2824262,0.80917558 0 0 0 0.0496,0.22126 v 5.72229 a 1.2824262,0.80917558 0 0 0 -0.0496,0.21913 1.2824262,0.80917558 0 0 0 1.28289,0.80928 1.2824262,0.80917558 0 0 0 1.28234,-0.80928 1.2824262,0.80917558 0 0 0 -0.0205,-0.14231 h 0.0205 z"
         id="path1619"
         inkscape:connector-curvature="0" /><path
         inkscape:export-ydpi="96"
         inkscape:export-xdpi="96"
         style="fill:#cccccc;stroke:#000000;stroke-width:0.965022;stroke-linecap:butt;stroke-linejoin:miter;stroke-miterlimit:4;stroke-dasharray:none;stroke-opacity:1"
         d="m 82.920936,123.439 c 5.5486,0.77136 9.85293,2.19095 15.00276,4.31568 0.65086,-0.53764 1.21248,-0.40761 0.77069,-1.17701 -4.49535,-2.44153 -9.24121,-4.00901 -15.10552,-5.05676 -0.80901,0.28401 -0.80635,1.05991 -0.66793,1.91809 z"
         id="path1606"
         inkscape:connector-curvature="0"
         sodipodi:nodetypes="ccccc" /><path
         sodipodi:nodetypes="ccccc"
         inkscape:connector-curvature="0"
         id="path823"
         d="m 82.920936,153.63755 c 5.5486,0.77137 9.85293,2.19095 15.00276,4.31566 0.65086,-0.53763 1.21248,-0.4076 0.77069,-1.177 -4.49535,-2.44152 -9.24121,-4.00898 -15.10552,-5.05673 -0.80901,0.284 -0.80635,1.05991 -0.66793,1.91807 z"
         style="fill:#cccccc;stroke:#000000;stroke-width:0.965022;stroke-linecap:butt;stroke-linejoin:miter;stroke-miterlimit:4;stroke-dasharray:none;stroke-opacity:1" /><path
         style="fill:#cccccc;stroke:#000000;stroke-width:0.965022;stroke-linecap:butt;stroke-linejoin:miter;stroke-miterlimit:4;stroke-dasharray:none;stroke-opacity:1"
         d="m 82.920936,143.42534 c 5.5486,0.77136 9.85293,2.19095 15.00276,4.31566 0.65086,-0.53763 1.21248,-0.40761 0.77069,-1.177 -4.49535,-2.44152 -9.24121,-4.00898 -15.10552,-5.05673 -0.80901,0.284 -0.80635,1.0599 -0.66793,1.91807 z"
         id="path827"
         inkscape:connector-curvature="0"
         sodipodi:nodetypes="ccccc" /><path
         sodipodi:nodetypes="ccccc"
         inkscape:connector-curvature="0"
         id="path817-3"
         d="m 99.904276,147.88545 c -6.2408,0.96562 -11.54903,3.16623 -16.29035,6.09769 -1.02218,-0.27267 -1.91202,-0.62956 -1.3176,-1.93093 5.17397,-2.63742 10.63984,-4.85028 16.76948,-6.0977 0.53977,0.35972 1.219214,0.56708 0.83847,1.93094 z"
         style="fill:#ffffff;stroke:#000000;stroke-width:0.965022;stroke-linecap:butt;stroke-linejoin:miter;stroke-miterlimit:4;stroke-dasharray:none;stroke-opacity:1" /><path
         style="fill:#ffffff;stroke:#000000;stroke-width:0.965022;stroke-linecap:butt;stroke-linejoin:miter;stroke-miterlimit:4;stroke-dasharray:none;stroke-opacity:1"
         d="m 99.904276,158.34674 c -6.2408,0.96562 -11.54903,3.16623 -16.29035,6.09769 -1.02218,-0.27268 -1.91202,-0.62956 -1.3176,-1.93094 5.17397,-2.63741 10.63984,-4.85027 16.76948,-6.09769 0.53977,0.35972 1.219214,0.56708 0.83847,1.93094 z"
         id="path825"
         inkscape:connector-curvature="0"
         sodipodi:nodetypes="ccccc" /><path
         sodipodi:nodetypes="ccccc"
         inkscape:connector-curvature="0"
         id="path839-6"
         d="m 82.920936,132.964 c 5.5486,0.77137 9.85293,2.19096 15.00276,4.31568 0.65086,-0.53763 1.21248,-0.40761 0.77069,-1.177 -4.49535,-2.44154 -9.24121,-4.00901 -15.10552,-5.05676 -0.80901,0.284 -0.80635,1.05991 -0.66793,1.91808 z"
         style="fill:#cccccc;stroke:#000000;stroke-width:0.965022;stroke-linecap:butt;stroke-linejoin:miter;stroke-miterlimit:4;stroke-dasharray:none;stroke-opacity:1" /><path
         style="fill:#ffffff;stroke:#000000;stroke-width:0.965022;stroke-linecap:butt;stroke-linejoin:miter;stroke-miterlimit:4;stroke-dasharray:none;stroke-opacity:1"
         d="m 99.904276,137.67321 c -6.2408,0.96563 -11.54903,3.16625 -16.29035,6.09772 -1.02218,-0.27268 -1.91202,-0.62957 -1.3176,-1.93094 5.17397,-2.63743 10.63984,-4.8503 16.76948,-6.09773 0.53977,0.35973 1.219214,0.56708 0.83847,1.93095 z"
         id="path829"
         inkscape:connector-curvature="0"
         sodipodi:nodetypes="ccccc" /><path
         sodipodi:nodetypes="ccccc"
         inkscape:connector-curvature="0"
         id="path833"
         d="m 99.904276,127.46094 c -6.2408,0.96563 -11.54903,3.16625 -16.29035,6.09773 -1.02218,-0.27268 -1.91202,-0.62957 -1.3176,-1.93095 5.17397,-2.63743 10.63984,-4.8503 16.76948,-6.09773 0.53977,0.35973 1.219214,0.56708 0.83847,1.93095 z"
         style="fill:#ffffff;stroke:#000000;stroke-width:0.965022;stroke-linecap:butt;stroke-linejoin:miter;stroke-miterlimit:4;stroke-dasharray:none;stroke-opacity:1" /><path
         inkscape:connector-curvature="0"
         id="path1610"
         d="m 84.691716,116.79684 a 1.2824262,0.80917558 0 0 0 -1.28234,-0.80928 1.2824262,0.80917558 0 0 0 -1.28289,0.80928 1.2824262,0.80917558 0 0 0 0.0496,0.22126 v 5.72229 a 1.2824262,0.80917558 0 0 0 -0.0496,0.21913 1.2824262,0.80917558 0 0 0 1.28289,0.80928 1.2824262,0.80917558 0 0 0 1.28234,-0.80928 1.2824262,0.80917558 0 0 0 -0.0205,-0.14231 h 0.0205 z"
         style="fill:#ffffff;stroke:#000000;stroke-width:0.965022;stroke-miterlimit:4;stroke-dasharray:none" /></g><g
       id="g48"
       transform="matrix(0,0.72537231,-0.72537231,0,205.56251,34.498583)"
       style="stroke-width:0.965022;stroke-dasharray:none"><g
         id="g12"
         transform="rotate(-90,99.087208,182.40606)"
         style="stroke-width:0.965022;stroke-dasharray:none"><path
           style="fill:none;stroke:#000000;stroke-width:0.965022;stroke-dasharray:none"
           d="m 47.570646,107.07917 v 56.79537"
           id="path4" /><path
           style="fill:none;stroke:#000000;stroke-width:0.965022;stroke-dasharray:none"
           d="m 47.570646,109.61145 -7.77771,7.77771"
           id="path5" /><path
           style="fill:none;stroke:#000000;stroke-width:0.965022;stroke-dasharray:none"
           d="m 47.570646,130.30714 -7.77771,7.77771"
           id="path6" /><path
           style="fill:none;stroke:#000000;stroke-width:0.965022;stroke-dasharray:none"
           d="m 47.570646,116.51001 -7.77771,7.77771"
           id="path7" /><path
           style="fill:none;stroke:#000000;stroke-width:0.965022;stroke-dasharray:none"
           d="m 47.570646,123.40857 -7.77771,7.77771"
           id="path8" /><path
           style="fill:none;stroke:#000000;stroke-width:0.965022;stroke-dasharray:none"
           d="m 47.570646,137.2057 -7.77771,7.77771"
           id="path9" /><path
           style="fill:none;stroke:#000000;stroke-width:0.965022;stroke-dasharray:none"
           d="m 47.570646,144.10426 -7.77771,7.77771"
           id="path10" /><path
           style="fill:none;stroke:#000000;stroke-width:0.965022;stroke-dasharray:none"
           d="m 47.570646,151.00282 -7.77771,7.77771"
           id="path11" /><path
           style="fill:none;stroke:#000000;stroke-width:0.965022;stroke-dasharray:none"
           d="m 47.570646,157.90138 -7.77771,7.77771"
           id="path12" /></g></g><rect
       style="fill:#ffffff;stroke:#000000;stroke-width:0.7;stroke-miterlimit:4;stroke-dasharray:none"
       id="rect48"
       width="29.855967"
       height="24.427608"
       x="45.025227"
       y="113.85362"
       inkscape:export-filename="/home/pv/Imagens/massa-mola-amortecedor-força.png"
       inkscape:export-xdpi="96"
       inkscape:export-ydpi="96"
       ry="3.483232" /><g
       id="g57"
       transform="matrix(0.72537231,0,0,0.72537231,14.991004,-11.684046)"
       style="stroke-width:0.965022;stroke-dasharray:none"><g
         id="g56"
         transform="rotate(-90,99.087208,182.40606)"
         style="stroke-width:0.965022;stroke-dasharray:none"><path
           style="fill:none;stroke:#000000;stroke-width:0.965022;stroke-dasharray:none"
           d="m 47.570646,107.07917 v 56.79537"
           id="path48" /><path
           style="fill:none;stroke:#000000;stroke-width:0.965022;stroke-dasharray:none"
           d="m 47.570646,109.61145 -7.77771,7.77771"
           id="path49" /><path
           style="fill:none;stroke:#000000;stroke-width:0.965022;stroke-dasharray:none"
           d="m 47.570646,130.30714 -7.77771,7.77771"
           id="path50" /><path
           style="fill:none;stroke:#000000;stroke-width:0.965022;stroke-dasharray:none"
           d="m 47.570646,116.51001 -7.77771,7.77771"
           id="path51" /><path
           style="fill:none;stroke:#000000;stroke-width:0.965022;stroke-dasharray:none"
           d="m 47.570646,123.40857 -7.77771,7.77771"
           id="path52" /><path
           style="fill:none;stroke:#000000;stroke-width:0.965022;stroke-dasharray:none"
           d="m 47.570646,137.2057 -7.77771,7.77771"
           id="path53" /><path
           style="fill:none;stroke:#000000;stroke-width:0.965022;stroke-dasharray:none"
           d="m 47.570646,144.10426 -7.77771,7.77771"
           id="path54" /><path
           style="fill:none;stroke:#000000;stroke-width:0.965022;stroke-dasharray:none"
           d="m 47.570646,151.00282 -7.77771,7.77771"
           id="path55" /><path
           style="fill:none;stroke:#000000;stroke-width:0.965022;stroke-dasharray:none"
           d="m 47.570646,157.90138 -7.77771,7.77771"
           id="path56" /></g></g><path
       style="fill:#1a1a1a;stroke:#000000;stroke-width:0.7;stroke-dasharray:none;marker-end:url(#Triangle)"
       d="M 74.947247,73.644058 H 93.702951"
       id="path1" /><g
       inkscape:label=""
       transform="translate(54.004344,53.200736)"
       id="g1"><g
   fill="#000000"
   fill-opacity="1"
   id="g2"
   transform="matrix(0.352778,0,0,0.352778,-1.10547,-0.710097)">
    <g
   id="use1"
   transform="translate(1.993,16.341)">
      <path
   d="m 5.796875,-13.8125 c 0.03125,-0.09375 0.0625,-0.21875 0.0625,-0.3125 0,-0.203125 -0.203125,-0.203125 -0.234375,-0.203125 -0.03125,0 -0.765625,0.04687 -1.140625,0.09375 -0.359375,0.01563 -0.65625,0.0625 -1.03125,0.07813 -0.5,0.04687 -0.640625,0.0625 -0.640625,0.4375 0,0.203125 0.203125,0.203125 0.40625,0.203125 1.0625,0 1.0625,0.1875 1.0625,0.40625 0,0.07813 0,0.109375 -0.109375,0.484375 L 1.21875,-0.8125 C 1.140625,-0.5 1.140625,-0.453125 1.140625,-0.328125 c 0,0.453125 0.34375,0.53125 0.546875,0.53125 0.578125,0 0.703125,-0.453125 0.875,-1.09375 L 3.53125,-4.75 c 1.484375,0.171875 2.375,0.78125 2.375,1.78125 0,0.125 0,0.203125 -0.0625,0.515625 -0.078125,0.3125 -0.078125,0.546875 -0.078125,0.65625 0,1.203125 0.78125,2 1.828125,2 0.953125,0 1.453125,-0.859375 1.625,-1.15625 0.421875,-0.765625 0.703125,-1.921875 0.703125,-2 0,-0.109375 -0.09375,-0.1875 -0.21875,-0.1875 -0.1875,0 -0.203125,0.078125 -0.28125,0.40625 -0.296875,1.078125 -0.71875,2.53125 -1.78125,2.53125 -0.40625,0 -0.671875,-0.203125 -0.671875,-1 0,-0.390625 0.078125,-0.84375 0.15625,-1.15625 C 7.203125,-2.734375 7.203125,-2.75 7.203125,-3 c 0,-1.21875 -1.09375,-1.890625 -2.984375,-2.140625 0.734375,-0.453125 1.484375,-1.265625 1.765625,-1.578125 1.1875,-1.3125 1.984375,-1.984375 2.9375,-1.984375 0.484375,0 0.59375,0.125 0.75,0.25 -0.765625,0.09375 -1.0625,0.625 -1.0625,1.03125 0,0.5 0.390625,0.671875 0.6875,0.671875 0.5625,0 1.046875,-0.484375 1.046875,-1.140625 0,-0.59375 -0.46875,-1.21875 -1.40625,-1.21875 -1.125,0 -2.0625,0.8125 -3.53125,2.453125 -0.203125,0.25 -0.96875,1.03125 -1.734375,1.328125 z m 0,0"
   id="path2" />
    </g>
  </g>
</g><g
       inkscape:label=""
       transform="translate(80.916867,67.155427)"
       id="g13"><g
   fill="#000000"
   fill-opacity="1"
   id="g3"
   transform="matrix(0.352778,0,0,0.352778,-0.989718,-0.627812)">
    <g
   id="use2"
   transform="translate(1.993,10.889)">
      <path
   d="m 9.109375,-8.90625 c 0,-0.09375 -0.078125,-0.1875 -0.1875,-0.1875 -0.15625,0 -0.96875,0.75 -1.359375,1.46875 -0.375,-0.921875 -1.015625,-1.484375 -1.90625,-1.484375 -2.328125,0 -4.84375,3.015625 -4.84375,6.078125 0,2.046875 1.1875,3.234375 2.59375,3.234375 1.09375,0 2,-0.828125 2.4375,-1.296875 l 0.015625,0.015625 -0.78125,3.109375 -0.1875,0.734375 c -0.1875,0.625 -0.484375,0.625 -1.46875,0.640625 C 3.203125,3.40625 3,3.40625 3,3.796875 3,3.953125 3.125,4 3.265625,4 3.546875,4 3.921875,3.96875 4.21875,3.96875 H 6.328125 C 6.625,3.96875 6.984375,4 7.296875,4 7.421875,4 7.65625,4 7.65625,3.609375 7.65625,3.40625 7.5,3.40625 7.1875,3.40625 6.21875,3.40625 6.15625,3.265625 6.15625,3.09375 6.15625,3 6.171875,2.96875 6.234375,2.703125 Z m -2.90625,6.453125 C 6.09375,-2.109375 6.09375,-2.0625 5.796875,-1.671875 5.34375,-1.09375 4.4375,-0.203125 3.46875,-0.203125 c -0.84375,0 -1.328125,-0.765625 -1.328125,-1.984375 0,-1.140625 0.640625,-3.453125 1.046875,-4.3125 0.703125,-1.453125 1.671875,-2.203125 2.46875,-2.203125 1.359375,0 1.640625,1.703125 1.640625,1.859375 0,0.03125 -0.0625,0.296875 -0.09375,0.34375 z m 0,0"
   id="path3" />
    </g>
  </g>
  <g
   fill="#000000"
   fill-opacity="1"
   id="g4"
   transform="matrix(0.352778,0,0,0.352778,-0.989718,-0.627812)">
    <g
   id="use3"
   transform="translate(10.963,13.988)">
      <path
   d="m 4.125,-9.1875 c 0,-0.34375 0,-0.34375 -0.28125,-0.34375 C 3.5,-9.15625 2.78125,-8.625 1.3125,-8.625 v 0.421875 c 0.328125,0 1.046875,0 1.828125,-0.375 v 7.46875 c 0,0.515625 -0.046875,0.6875 -1.296875,0.6875 H 1.390625 V 0 c 0.390625,-0.03125 1.78125,-0.03125 2.25,-0.03125 0.46875,0 1.859375,0 2.234375,0.03125 V -0.421875 H 5.4375 c -1.265625,0 -1.3125,-0.171875 -1.3125,-0.6875 z m 0,0"
   id="path13" />
    </g>
  </g>
</g><g
       inkscape:label=""
       transform="translate(57.040033,125.39401)"
       id="g16"><g
   fill="#000000"
   fill-opacity="1"
   id="g15"
   transform="matrix(0.352778,0,0,0.352778,-0.901524,-0.627459)">
    <g
   id="g14"
   transform="translate(1.993,10.888)">
      <path
   d="M 4.25,-6.046875 C 4.296875,-6.171875 4.8125,-7.203125 5.578125,-7.875 6.109375,-8.359375 6.8125,-8.703125 7.625,-8.703125 c 0.828125,0 1.109375,0.625 1.109375,1.453125 0,0.125 0,0.53125 -0.25,1.5 L 7.96875,-3.609375 C 7.8125,-3 7.421875,-1.46875 7.375,-1.234375 c -0.078125,0.3125 -0.203125,0.84375 -0.203125,0.921875 0,0.296875 0.21875,0.515625 0.53125,0.515625 0.625,0 0.71875,-0.46875 0.90625,-1.21875 l 1.25,-4.9375 c 0.03125,-0.15625 1.109375,-2.75 3.375,-2.75 0.828125,0 1.125,0.625 1.125,1.453125 0,1.15625 -0.8125,3.40625 -1.265625,4.640625 -0.1875,0.5 -0.28125,0.765625 -0.28125,1.140625 0,0.9375 0.640625,1.671875 1.625,1.671875 1.921875,0 2.640625,-3.03125 2.640625,-3.15625 0,-0.109375 -0.07813,-0.1875 -0.203125,-0.1875 -0.1875,0 -0.203125,0.0625 -0.3125,0.40625 -0.46875,1.65625 -1.234375,2.53125 -2.0625,2.53125 -0.203125,0 -0.53125,-0.03125 -0.53125,-0.6875 0,-0.53125 0.25,-1.203125 0.328125,-1.421875 0.375,-1 1.296875,-3.4375 1.296875,-4.625 0,-1.25 -0.71875,-2.171875 -2.296875,-2.171875 -1.375,0 -2.5,0.78125 -3.3125,2 -0.0625,-1.109375 -0.75,-2 -2.296875,-2 -1.84375,0 -2.8125,1.296875 -3.1875,1.8125 -0.0625,-1.171875 -0.90625,-1.8125 -1.8125,-1.8125 -0.59375,0 -1.078125,0.296875 -1.46875,1.078125 -0.375,0.734375 -0.65625,2 -0.65625,2.078125 0,0.09375 0.078125,0.1875 0.21875,0.1875 0.171875,0 0.1875,-0.015625 0.3125,-0.5 0.3125,-1.21875 0.703125,-2.4375 1.53125,-2.4375 0.46875,0 0.640625,0.34375 0.640625,0.953125 0,0.453125 -0.203125,1.265625 -0.359375,1.90625 l -0.578125,2.234375 c -0.078125,0.390625 -0.296875,1.3125 -0.40625,1.6875 -0.140625,0.53125 -0.375,1.515625 -0.375,1.609375 0,0.296875 0.234375,0.515625 0.546875,0.515625 0.234375,0 0.53125,-0.125 0.6875,-0.4375 0.046875,-0.09375 0.234375,-0.8125 0.34375,-1.234375 l 0.453125,-1.859375 z m 0,0"
   id="path14" />
    </g>
  </g>
</g><path
       style="fill:#1a1a1a;stroke:#000000;stroke-width:0.3;stroke-dasharray:none"
       d="M 45.025225,138.28123 H 28.859779"
       id="path16" /><path
       style="fill:#1a1a1a;stroke:#000000;stroke-width:0.3;stroke-dasharray:none;marker-start:url(#Triangle);marker-end:url(#Triangle)"
       d="m 33.284415,139.4685 v 17.24984"
       id="path17"
       sodipodi:nodetypes="cc" /><g
       inkscape:label=""
       transform="translate(27.763853,145.98839)"
       id="g22"><g
   fill="#000000"
   fill-opacity="1"
   id="g19"
   transform="matrix(0.352778,0,0,0.352778,-0.989718,-0.627812)">
    <g
   id="g18"
   transform="translate(1.993,10.889)">
      <path
   d="m 9.109375,-8.90625 c 0,-0.09375 -0.078125,-0.1875 -0.1875,-0.1875 -0.15625,0 -0.96875,0.75 -1.359375,1.46875 -0.375,-0.921875 -1.015625,-1.484375 -1.90625,-1.484375 -2.328125,0 -4.84375,3.015625 -4.84375,6.078125 0,2.046875 1.1875,3.234375 2.59375,3.234375 1.09375,0 2,-0.828125 2.4375,-1.296875 l 0.015625,0.015625 -0.78125,3.109375 -0.1875,0.734375 c -0.1875,0.625 -0.484375,0.625 -1.46875,0.640625 C 3.203125,3.40625 3,3.40625 3,3.796875 3,3.953125 3.125,4 3.265625,4 3.546875,4 3.921875,3.96875 4.21875,3.96875 H 6.328125 C 6.625,3.96875 6.984375,4 7.296875,4 7.421875,4 7.65625,4 7.65625,3.609375 7.65625,3.40625 7.5,3.40625 7.1875,3.40625 6.21875,3.40625 6.15625,3.265625 6.15625,3.09375 6.15625,3 6.171875,2.96875 6.234375,2.703125 Z m -2.90625,6.453125 C 6.09375,-2.109375 6.09375,-2.0625 5.796875,-1.671875 5.34375,-1.09375 4.4375,-0.203125 3.46875,-0.203125 c -0.84375,0 -1.328125,-0.765625 -1.328125,-1.984375 0,-1.140625 0.640625,-3.453125 1.046875,-4.3125 0.703125,-1.453125 1.671875,-2.203125 2.46875,-2.203125 1.359375,0 1.640625,1.703125 1.640625,1.859375 0,0.03125 -0.0625,0.296875 -0.09375,0.34375 z m 0,0"
   id="path18" />
    </g>
  </g>
  <g
   fill="#000000"
   fill-opacity="1"
   id="g21"
   transform="matrix(0.352778,0,0,0.352778,-0.989718,-0.627812)">
    <g
   id="g20"
   transform="translate(10.963,13.988)">
      <path
   d="m 4.125,-9.1875 c 0,-0.34375 0,-0.34375 -0.28125,-0.34375 C 3.5,-9.15625 2.78125,-8.625 1.3125,-8.625 v 0.421875 c 0.328125,0 1.046875,0 1.828125,-0.375 v 7.46875 c 0,0.515625 -0.046875,0.6875 -1.296875,0.6875 H 1.390625 V 0 c 0.390625,-0.03125 1.78125,-0.03125 2.25,-0.03125 0.46875,0 1.859375,0 2.234375,0.03125 V -0.421875 H 5.4375 c -1.265625,0 -1.3125,-0.171875 -1.3125,-0.6875 z m 0,0"
   id="path19" />
    </g>
  </g>
</g><g
       inkscape:label=""
       transform="translate(105.02769,62.55996)"
       id="g33"><g
   fill="#000000"
   fill-opacity="1"
   id="g8"
   transform="matrix(0.352778,0,0,0.352778,-1.19918,-0.601751)">
    <g
   id="use7"
   transform="translate(1.993,32.714001)">
      <path
   d="m 10.453125,-4.75 c -0.71875,2.890625 -3.125,4.578125 -5.0625,4.578125 -1.484375,0 -2.5,-0.984375 -2.5,-2.703125 0,-0.078125 0,-0.703125 0.234375,-1.609375 l 2.015625,-8.109375 c 0.1875,-0.703125 0.234375,-0.921875 1.703125,-0.921875 0.359375,0 0.578125,0 0.578125,-0.359375 0,-0.234375 -0.1875,-0.234375 -0.3125,-0.234375 -0.375,0 -0.8125,0.04687 -1.203125,0.04687 h -2.4375 c -0.390625,0 -0.828125,-0.04687 -1.21875,-0.04687 -0.140625,0 -0.390625,0 -0.390625,0.390625 0,0.203125 0.140625,0.203125 0.53125,0.203125 1.25,0 1.25,0.171875 1.25,0.40625 0,0.109375 -0.15625,0.71875 -0.25,1.0625 L 1.59375,-4.8125 c -0.0625,0.234375 -0.1875,0.78125 -0.1875,1.34375 0,2.265625 1.625,3.90625 3.875,3.90625 2.09375,0 4.40625,-1.65625 5.453125,-4.28125 0.15625,-0.34375 0.34375,-1.078125 0.46875,-1.625 0.203125,-0.75 0.640625,-2.5625 0.78125,-3.109375 l 0.78125,-3.09375 c 0.265625,-1.078125 0.4375,-1.75 2.25,-1.84375 0.171875,-0.01563 0.25,-0.171875 0.25,-0.359375 0,-0.234375 -0.1875,-0.234375 -0.265625,-0.234375 -0.296875,0 -0.671875,0.04687 -0.953125,0.04687 h -0.96875 c -1.28125,0 -1.9375,-0.04687 -1.96875,-0.04687 -0.125,0 -0.375,0 -0.375,0.390625 0,0.203125 0.171875,0.203125 0.3125,0.203125 1.25,0.04687 1.328125,0.515625 1.328125,0.890625 0,0.1875 0,0.25 -0.07813,0.546875 z m 0,0"
   id="path27" />
    </g>
  </g>
  <g
   fill="#000000"
   fill-opacity="1"
   id="g9"
   transform="matrix(0.352778,0,0,0.352778,-1.19918,-0.601751)">
    <g
   id="use8"
   transform="translate(23.631001,32.714001)">
      <path
   d="m 13.28125,-6.625 c 0.3125,0 0.625,0 0.625,-0.359375 0,-0.375 -0.359375,-0.375 -0.703125,-0.375 H 1.65625 c -0.359375,0 -0.703125,0 -0.703125,0.375 0,0.359375 0.3125,0.359375 0.609375,0.359375 z m -0.07813,3.671875 c 0.34375,0 0.703125,0 0.703125,-0.375 0,-0.34375 -0.3125,-0.34375 -0.625,-0.34375 H 1.5625 c -0.296875,0 -0.609375,0 -0.609375,0.34375 0,0.375 0.34375,0.375 0.703125,0.375 z m 0,0"
   id="path15" />
    </g>
  </g>
  <g
   fill="#000000"
   fill-opacity="1"
   id="g10"
   transform="matrix(0.352778,0,0,0.352778,-1.19918,-0.601751)">
    <g
   id="use9"
   transform="translate(45.439999,18.736)">
      <path
   d="m 5.796875,-13.8125 c 0.03125,-0.09375 0.0625,-0.21875 0.0625,-0.3125 0,-0.203125 -0.203125,-0.203125 -0.234375,-0.203125 -0.03125,0 -0.765625,0.04687 -1.140625,0.09375 -0.359375,0.01563 -0.65625,0.0625 -1.03125,0.07813 -0.5,0.04687 -0.640625,0.0625 -0.640625,0.4375 0,0.203125 0.203125,0.203125 0.40625,0.203125 1.0625,0 1.0625,0.1875 1.0625,0.40625 0,0.07813 0,0.109375 -0.109375,0.484375 L 1.21875,-0.8125 C 1.140625,-0.5 1.140625,-0.453125 1.140625,-0.328125 c 0,0.453125 0.34375,0.53125 0.546875,0.53125 0.578125,0 0.703125,-0.453125 0.875,-1.09375 L 3.53125,-4.75 c 1.484375,0.171875 2.375,0.78125 2.375,1.78125 0,0.125 0,0.203125 -0.0625,0.515625 -0.078125,0.3125 -0.078125,0.546875 -0.078125,0.65625 0,1.203125 0.78125,2 1.828125,2 0.953125,0 1.453125,-0.859375 1.625,-1.15625 0.421875,-0.765625 0.703125,-1.921875 0.703125,-2 0,-0.109375 -0.09375,-0.1875 -0.21875,-0.1875 -0.1875,0 -0.203125,0.078125 -0.28125,0.40625 -0.296875,1.078125 -0.71875,2.53125 -1.78125,2.53125 -0.40625,0 -0.671875,-0.203125 -0.671875,-1 0,-0.390625 0.078125,-0.84375 0.15625,-1.15625 C 7.203125,-2.734375 7.203125,-2.75 7.203125,-3 c 0,-1.21875 -1.09375,-1.890625 -2.984375,-2.140625 0.734375,-0.453125 1.484375,-1.265625 1.765625,-1.578125 1.1875,-1.3125 1.984375,-1.984375 2.9375,-1.984375 0.484375,0 0.59375,0.125 0.75,0.25 -0.765625,0.09375 -1.0625,0.625 -1.0625,1.03125 0,0.5 0.390625,0.671875 0.6875,0.671875 0.5625,0 1.046875,-0.484375 1.046875,-1.140625 0,-0.59375 -0.46875,-1.21875 -1.40625,-1.21875 -1.125,0 -2.0625,0.8125 -3.53125,2.453125 -0.203125,0.25 -0.96875,1.03125 -1.734375,1.328125 z m 0,0"
   id="path28" />
    </g>
  </g>
  <g
   fill="#000000"
   fill-opacity="1"
   id="g11"
   transform="matrix(0.352778,0,0,0.352778,-1.19918,-0.601751)">
    <g
   id="use10"
   transform="translate(56.665936,18.736)">
      <path
   d="m 9.109375,-8.90625 c 0,-0.09375 -0.078125,-0.1875 -0.1875,-0.1875 -0.15625,0 -0.96875,0.75 -1.359375,1.46875 -0.375,-0.921875 -1.015625,-1.484375 -1.90625,-1.484375 -2.328125,0 -4.84375,3.015625 -4.84375,6.078125 0,2.046875 1.1875,3.234375 2.59375,3.234375 1.09375,0 2,-0.828125 2.4375,-1.296875 l 0.015625,0.015625 -0.78125,3.109375 -0.1875,0.734375 c -0.1875,0.625 -0.484375,0.625 -1.46875,0.640625 C 3.203125,3.40625 3,3.40625 3,3.796875 3,3.953125 3.125,4 3.265625,4 3.546875,4 3.921875,3.96875 4.21875,3.96875 H 6.328125 C 6.625,3.96875 6.984375,4 7.296875,4 7.421875,4 7.65625,4 7.65625,3.609375 7.65625,3.40625 7.5,3.40625 7.1875,3.40625 6.21875,3.40625 6.15625,3.265625 6.15625,3.09375 6.15625,3 6.171875,2.96875 6.234375,2.703125 Z m -2.90625,6.453125 C 6.09375,-2.109375 6.09375,-2.0625 5.796875,-1.671875 5.34375,-1.09375 4.4375,-0.203125 3.46875,-0.203125 c -0.84375,0 -1.328125,-0.765625 -1.328125,-1.984375 0,-1.140625 0.640625,-3.453125 1.046875,-4.3125 0.703125,-1.453125 1.671875,-2.203125 2.46875,-2.203125 1.359375,0 1.640625,1.703125 1.640625,1.859375 0,0.03125 -0.0625,0.296875 -0.09375,0.34375 z m 0,0"
   id="path29" />
    </g>
  </g>
  <g
   fill="#000000"
   fill-opacity="1"
   id="g30"
   transform="matrix(0.352778,0,0,0.352778,-1.19918,-0.601751)">
    <g
   id="use11"
   transform="translate(66.367996,11.237)">
      <path
   d="M 6.3125,-2.40625 H 6 c -0.046875,0.234375 -0.15625,1.03125 -0.3125,1.265625 -0.09375,0.125 -0.90625,0.125 -1.34375,0.125 H 1.6875 c 0.390625,-0.328125 1.265625,-1.25 1.640625,-1.59375 2.1875,-2.015625 2.984375,-2.75 2.984375,-4.171875 0,-1.65625 -1.3125,-2.75 -2.96875,-2.75 -1.671875,0 -2.640625,1.40625 -2.640625,2.640625 0,0.734375 0.625,0.734375 0.671875,0.734375 0.296875,0 0.671875,-0.21875 0.671875,-0.671875 C 2.046875,-7.234375 1.78125,-7.5 1.375,-7.5 1.25,-7.5 1.21875,-7.5 1.171875,-7.484375 1.453125,-8.46875 2.21875,-9.125 3.15625,-9.125 4.375,-9.125 5.125,-8.109375 5.125,-6.78125 5.125,-5.5625 4.421875,-4.5 3.59375,-3.578125 L 0.703125,-0.34375 V 0 H 5.9375 Z m 0,0"
   id="path30" />
    </g>
  </g>
  <g
   fill="#000000"
   fill-opacity="1"
   id="g31"
   transform="matrix(0.352778,0,0,0.352778,-1.19918,-0.601751)">
    <g
   id="use12"
   transform="translate(65.625999,23.844)">
      <path
   d="m 4.125,-9.1875 c 0,-0.34375 0,-0.34375 -0.28125,-0.34375 C 3.5,-9.15625 2.78125,-8.625 1.3125,-8.625 v 0.421875 c 0.328125,0 1.046875,0 1.828125,-0.375 v 7.46875 c 0,0.515625 -0.046875,0.6875 -1.296875,0.6875 H 1.390625 V 0 c 0.390625,-0.03125 1.78125,-0.03125 2.25,-0.03125 0.46875,0 1.859375,0 2.234375,0.03125 V -0.421875 H 5.4375 c -1.265625,0 -1.3125,-0.171875 -1.3125,-0.6875 z m 0,0"
   id="path31" />
    </g>
  </g>
  <path
   fill="none"
   stroke-width="0.826"
   stroke-linecap="butt"
   stroke-linejoin="miter"
   stroke="#000000"
   stroke-opacity="1"
   stroke-miterlimit="10"
   d="M 42.042156,25.841125 H 70.491375"
   id="path32"
   transform="scale(0.352778)" />
  <g
   fill="#000000"
   fill-opacity="1"
   id="g32"
   transform="matrix(0.352778,0,0,0.352778,-1.19918,-0.601751)">
    <g
   id="use13"
   transform="translate(54.926998,46.887001)">
      <path
   d="m 8.609375,-3.203125 h -0.375 c -0.203125,1.46875 -0.359375,1.71875 -0.453125,1.84375 -0.09375,0.15625 -1.578125,0.15625 -1.875,0.15625 H 1.9375 C 2.6875,-2 4.125,-3.46875 5.890625,-5.171875 c 1.25,-1.1875 2.71875,-2.59375 2.71875,-4.640625 0,-2.4375 -1.9375,-3.84375 -4.109375,-3.84375 -2.265625,0 -3.65625,2 -3.65625,3.859375 0,0.8125 0.609375,0.921875 0.84375,0.921875 0.21875,0 0.828125,-0.125 0.828125,-0.859375 0,-0.640625 -0.53125,-0.828125 -0.828125,-0.828125 -0.125,0 -0.234375,0.03125 -0.328125,0.0625 0.390625,-1.75 1.59375,-2.609375 2.859375,-2.609375 1.796875,0 2.96875,1.421875 2.96875,3.296875 0,1.796875 -1.046875,3.34375 -2.234375,4.6875 L 0.84375,-0.46875 V 0 H 8.125 Z m 0,0"
   id="path20" />
    </g>
  </g>
</g><g
       inkscape:label=""
       transform="translate(96.80813,122.4714)"
       id="g43"><g
   fill="#000000"
   fill-opacity="1"
   id="g7"
   transform="matrix(0.352778,0,0,0.352778,-1.19918,-0.706481)">
    <g
   id="use6"
   transform="translate(1.993,16.112)">
      <path
   d="m 10.453125,-4.75 c -0.71875,2.890625 -3.125,4.578125 -5.0625,4.578125 -1.484375,0 -2.5,-0.984375 -2.5,-2.703125 0,-0.078125 0,-0.703125 0.234375,-1.609375 l 2.015625,-8.109375 c 0.1875,-0.703125 0.234375,-0.921875 1.703125,-0.921875 0.359375,0 0.578125,0 0.578125,-0.359375 0,-0.234375 -0.1875,-0.234375 -0.3125,-0.234375 -0.375,0 -0.8125,0.04687 -1.203125,0.04687 h -2.4375 c -0.390625,0 -0.828125,-0.04687 -1.21875,-0.04687 -0.140625,0 -0.390625,0 -0.390625,0.390625 0,0.203125 0.140625,0.203125 0.53125,0.203125 1.25,0 1.25,0.171875 1.25,0.40625 0,0.109375 -0.15625,0.71875 -0.25,1.0625 L 1.59375,-4.8125 c -0.0625,0.234375 -0.1875,0.78125 -0.1875,1.34375 0,2.265625 1.625,3.90625 3.875,3.90625 2.09375,0 4.40625,-1.65625 5.453125,-4.28125 0.15625,-0.34375 0.34375,-1.078125 0.46875,-1.625 0.203125,-0.75 0.640625,-2.5625 0.78125,-3.109375 l 0.78125,-3.09375 c 0.265625,-1.078125 0.4375,-1.75 2.25,-1.84375 0.171875,-0.01563 0.25,-0.171875 0.25,-0.359375 0,-0.234375 -0.1875,-0.234375 -0.265625,-0.234375 -0.296875,0 -0.671875,0.04687 -0.953125,0.04687 h -0.96875 c -1.28125,0 -1.9375,-0.04687 -1.96875,-0.04687 -0.125,0 -0.375,0 -0.375,0.390625 0,0.203125 0.171875,0.203125 0.3125,0.203125 1.25,0.04687 1.328125,0.515625 1.328125,0.890625 0,0.1875 0,0.25 -0.07813,0.546875 z m 0,0"
   id="path33" />
    </g>
  </g>
  <g
   fill="#000000"
   fill-opacity="1"
   id="g35"
   transform="matrix(0.352778,0,0,0.352778,-1.19918,-0.706481)">
    <g
   id="g34"
   transform="translate(23.631001,16.112)">
      <path
   d="m 13.28125,-6.625 c 0.3125,0 0.625,0 0.625,-0.359375 0,-0.375 -0.359375,-0.375 -0.703125,-0.375 H 1.65625 c -0.359375,0 -0.703125,0 -0.703125,0.375 0,0.359375 0.3125,0.359375 0.609375,0.359375 z m -0.07813,3.671875 c 0.34375,0 0.703125,0 0.703125,-0.375 0,-0.34375 -0.3125,-0.34375 -0.625,-0.34375 H 1.5625 c -0.296875,0 -0.609375,0 -0.609375,0.34375 0,0.375 0.34375,0.375 0.703125,0.375 z m 0,0"
   id="path34" />
    </g>
  </g>
  <g
   fill="#000000"
   fill-opacity="1"
   id="g38"
   transform="matrix(0.352778,0,0,0.352778,-1.19918,-0.706481)">
    <g
   id="g36"
   transform="translate(44.243999,16.112)">
      <path
   d="M 4.25,-6.046875 C 4.296875,-6.171875 4.8125,-7.203125 5.578125,-7.875 6.109375,-8.359375 6.8125,-8.703125 7.625,-8.703125 c 0.828125,0 1.109375,0.625 1.109375,1.453125 0,0.125 0,0.53125 -0.25,1.5 L 7.96875,-3.609375 C 7.8125,-3 7.421875,-1.46875 7.375,-1.234375 c -0.078125,0.3125 -0.203125,0.84375 -0.203125,0.921875 0,0.296875 0.21875,0.515625 0.53125,0.515625 0.625,0 0.71875,-0.46875 0.90625,-1.21875 l 1.25,-4.9375 c 0.03125,-0.15625 1.109375,-2.75 3.375,-2.75 0.828125,0 1.125,0.625 1.125,1.453125 0,1.15625 -0.8125,3.40625 -1.265625,4.640625 -0.1875,0.5 -0.28125,0.765625 -0.28125,1.140625 0,0.9375 0.640625,1.671875 1.625,1.671875 1.921875,0 2.640625,-3.03125 2.640625,-3.15625 0,-0.109375 -0.07813,-0.1875 -0.203125,-0.1875 -0.1875,0 -0.203125,0.0625 -0.3125,0.40625 -0.46875,1.65625 -1.234375,2.53125 -2.0625,2.53125 -0.203125,0 -0.53125,-0.03125 -0.53125,-0.6875 0,-0.53125 0.25,-1.203125 0.328125,-1.421875 0.375,-1 1.296875,-3.4375 1.296875,-4.625 0,-1.25 -0.71875,-2.171875 -2.296875,-2.171875 -1.375,0 -2.5,0.78125 -3.3125,2 -0.0625,-1.109375 -0.75,-2 -2.296875,-2 -1.84375,0 -2.8125,1.296875 -3.1875,1.8125 -0.0625,-1.171875 -0.90625,-1.8125 -1.8125,-1.8125 -0.59375,0 -1.078125,0.296875 -1.46875,1.078125 -0.375,0.734375 -0.65625,2 -0.65625,2.078125 0,0.09375 0.078125,0.1875 0.21875,0.1875 0.171875,0 0.1875,-0.015625 0.3125,-0.5 0.3125,-1.21875 0.703125,-2.4375 1.53125,-2.4375 0.46875,0 0.640625,0.34375 0.640625,0.953125 0,0.453125 -0.203125,1.265625 -0.359375,1.90625 l -0.578125,2.234375 c -0.078125,0.390625 -0.296875,1.3125 -0.40625,1.6875 -0.140625,0.53125 -0.375,1.515625 -0.375,1.609375 0,0.296875 0.234375,0.515625 0.546875,0.515625 0.234375,0 0.53125,-0.125 0.6875,-0.4375 0.046875,-0.09375 0.234375,-0.8125 0.34375,-1.234375 l 0.453125,-1.859375 z m 0,0"
   id="path35" />
    </g>
    <g
   id="g37"
   transform="translate(61.941429,16.112)">
      <path
   d="m 6.984375,-2.625 c -0.078125,0.328125 -0.125,0.421875 -0.390625,0.71875 -0.84375,1.09375 -1.71875,1.5 -2.359375,1.5 -0.6875,0 -1.328125,-0.546875 -1.328125,-1.96875 0,-1.09375 0.625,-3.40625 1.078125,-4.34375 C 4.578125,-7.875 5.515625,-8.703125 6.375,-8.703125 7.75,-8.703125 8.015625,-7 8.015625,-6.875 l -0.0625,0.28125 z M 8.265625,-7.75 C 8,-8.34375 7.421875,-9.109375 6.375,-9.109375 c -2.25,0 -4.8125,2.828125 -4.8125,5.90625 C 1.5625,-1.046875 2.875,0 4.1875,0 5.28125,0 6.265625,-0.875 6.625,-1.28125 L 6.171875,0.578125 c -0.28125,1.140625 -0.40625,1.65625 -1.15625,2.375 -0.84375,0.84375 -1.625,0.84375 -2.078125,0.84375 -0.625,0 -1.140625,-0.03125 -1.65625,-0.203125 0.65625,-0.1875 0.828125,-0.765625 0.828125,-0.984375 0,-0.34375 -0.25,-0.671875 -0.703125,-0.671875 -0.5,0 -1.03125,0.421875 -1.03125,1.09375 0,0.859375 0.84375,1.1875 2.59375,1.1875 2.671875,0 4.046875,-1.71875 4.328125,-2.828125 L 9.578125,-7.875 c 0.0625,-0.25 0.0625,-0.28125 0.0625,-0.328125 0,-0.28125 -0.21875,-0.515625 -0.53125,-0.515625 -0.5,0 -0.78125,0.421875 -0.84375,0.96875 z m 0,0"
   id="path36" />
    </g>
  </g>
  <g
   fill="#000000"
   fill-opacity="1"
   id="g40"
   transform="matrix(0.352778,0,0,0.352778,-1.19918,-0.706481)">
    <g
   id="g39"
   transform="translate(72.373924,16.112)">
      <path
   d="m 9.109375,-8.90625 c 0,-0.09375 -0.078125,-0.1875 -0.1875,-0.1875 -0.15625,0 -0.96875,0.75 -1.359375,1.46875 -0.375,-0.921875 -1.015625,-1.484375 -1.90625,-1.484375 -2.328125,0 -4.84375,3.015625 -4.84375,6.078125 0,2.046875 1.1875,3.234375 2.59375,3.234375 1.09375,0 2,-0.828125 2.4375,-1.296875 l 0.015625,0.015625 -0.78125,3.109375 -0.1875,0.734375 c -0.1875,0.625 -0.484375,0.625 -1.46875,0.640625 C 3.203125,3.40625 3,3.40625 3,3.796875 3,3.953125 3.125,4 3.265625,4 3.546875,4 3.921875,3.96875 4.21875,3.96875 H 6.328125 C 6.625,3.96875 6.984375,4 7.296875,4 7.421875,4 7.65625,4 7.65625,3.609375 7.65625,3.40625 7.5,3.40625 7.1875,3.40625 6.21875,3.40625 6.15625,3.265625 6.15625,3.09375 6.15625,3 6.171875,2.96875 6.234375,2.703125 Z m -2.90625,6.453125 C 6.09375,-2.109375 6.09375,-2.0625 5.796875,-1.671875 5.34375,-1.09375 4.4375,-0.203125 3.46875,-0.203125 c -0.84375,0 -1.328125,-0.765625 -1.328125,-1.984375 0,-1.140625 0.640625,-3.453125 1.046875,-4.3125 0.703125,-1.453125 1.671875,-2.203125 2.46875,-2.203125 1.359375,0 1.640625,1.703125 1.640625,1.859375 0,0.03125 -0.0625,0.296875 -0.09375,0.34375 z m 0,0"
   id="path38" />
    </g>
  </g>
  <g
   fill="#000000"
   fill-opacity="1"
   id="g42"
   transform="matrix(0.352778,0,0,0.352778,-1.19918,-0.706481)">
    <g
   id="g41"
   transform="translate(81.341003,19.211)">
      <path
   d="m 4.125,-9.1875 c 0,-0.34375 0,-0.34375 -0.28125,-0.34375 C 3.5,-9.15625 2.78125,-8.625 1.3125,-8.625 v 0.421875 c 0.328125,0 1.046875,0 1.828125,-0.375 v 7.46875 c 0,0.515625 -0.046875,0.6875 -1.296875,0.6875 H 1.390625 V 0 c 0.390625,-0.03125 1.78125,-0.03125 2.25,-0.03125 0.46875,0 1.859375,0 2.234375,0.03125 V -0.421875 H 5.4375 c -1.265625,0 -1.3125,-0.171875 -1.3125,-0.6875 z m 0,0"
   id="path40" />
    </g>
  </g>
</g><text
       xml:space="preserve"
       style="font-size:9.87777px;font-family:Calibri;-inkscape-font-specification:Calibri;text-align:center;text-anchor:middle;fill:#1a1a1a;stroke:none;stroke-width:0.3;stroke-dasharray:none"
       x="78.907745"
       y="33.791512"
       id="text43"><tspan
         sodipodi:role="line"
         id="tspan43"
         style="stroke:none;stroke-width:0.3"
         x="78.907745"
         y="33.791512">Energia Potencial</tspan></text></g></svg>
