<?xml version="1.0" encoding="UTF-8" standalone="no"?>
<!-- Created with Inkscape (http://www.inkscape.org/) -->

<svg
   width="187.10167mm"
   height="131.69121mm"
   viewBox="0 0 187.10167 131.69121"
   version="1.1"
   id="svg1"
   xml:space="preserve"
   inkscape:export-filename="fig3-4.png"
   inkscape:export-xdpi="96"
   inkscape:export-ydpi="96"
   inkscape:version="1.3 (0e150ed6c4, 2023-07-21)"
   sodipodi:docname="fig3-4.svg"
   xmlns:inkscape="http://www.inkscape.org/namespaces/inkscape"
   xmlns:sodipodi="http://sodipodi.sourceforge.net/DTD/sodipodi-0.dtd"
   xmlns="http://www.w3.org/2000/svg"
   xmlns:svg="http://www.w3.org/2000/svg"><sodipodi:namedview
     id="namedview1"
     pagecolor="#ffffff"
     bordercolor="#000000"
     borderopacity="0.25"
     inkscape:showpageshadow="2"
     inkscape:pageopacity="0.0"
     inkscape:pagecheckerboard="0"
     inkscape:deskcolor="#d1d1d1"
     inkscape:document-units="mm"
     inkscape:zoom="1.4627806"
     inkscape:cx="373.26172"
     inkscape:cy="232.09222"
     inkscape:window-width="1920"
     inkscape:window-height="1017"
     inkscape:window-x="-8"
     inkscape:window-y="-8"
     inkscape:window-maximized="1"
     inkscape:current-layer="layer1" /><defs
     id="defs1"><marker
       style="overflow:visible"
       id="marker13"
       refX="0"
       refY="0"
       orient="auto-start-reverse"
       inkscape:stockid="Triangle arrow"
       markerWidth="1"
       markerHeight="1"
       viewBox="0 0 1 1"
       inkscape:isstock="true"
       inkscape:collect="always"
       preserveAspectRatio="xMidYMid"><path
         transform="scale(0.5)"
         style="fill:context-stroke;fill-rule:evenodd;stroke:context-stroke;stroke-width:1pt"
         d="M 5.77,0 -2.88,5 V -5 Z"
         id="path13" /></marker><marker
       style="overflow:visible"
       id="Triangle"
       refX="0"
       refY="0"
       orient="auto-start-reverse"
       inkscape:stockid="Triangle arrow"
       markerWidth="1"
       markerHeight="1"
       viewBox="0 0 1 1"
       inkscape:isstock="true"
       inkscape:collect="always"
       preserveAspectRatio="xMidYMid"><path
         transform="scale(0.5)"
         style="fill:context-stroke;fill-rule:evenodd;stroke:context-stroke;stroke-width:1pt"
         d="M 5.77,0 -2.88,5 V -5 Z"
         id="path135" /></marker></defs><g
     inkscape:label="Camada 1"
     inkscape:groupmode="layer"
     id="layer1"
     transform="translate(-17.364173,-110.24424)"><g
       transform="rotate(180,63.150204,174.97421)"
       id="g6265"><path
         inkscape:export-ydpi="96"
         inkscape:export-xdpi="96"
         style="fill:#cccccc;fill-opacity:1;stroke:#000000;stroke-width:0.591977;stroke-miterlimit:4;stroke-dasharray:none"
         d="m 84.559426,162.90993 a 1.2824262,0.80917558 0 0 0 -1.28234,-0.80928 1.2824262,0.80917558 0 0 0 -1.28289,0.80928 1.2824262,0.80917558 0 0 0 0.0496,0.22126 v 5.72229 a 1.2824262,0.80917558 0 0 0 -0.0496,0.21913 1.2824262,0.80917558 0 0 0 1.28289,0.80928 1.2824262,0.80917558 0 0 0 1.28234,-0.80928 1.2824262,0.80917558 0 0 0 -0.0205,-0.14231 h 0.0205 z"
         id="path1619"
         inkscape:connector-curvature="0" /><path
         inkscape:export-ydpi="96"
         inkscape:export-xdpi="96"
         style="fill:#cccccc;stroke:#000000;stroke-width:0.7;stroke-linecap:butt;stroke-linejoin:miter;stroke-miterlimit:4;stroke-dasharray:none;stroke-opacity:1"
         d="m 82.920936,123.439 c 5.5486,0.77136 9.85293,2.19095 15.00276,4.31568 0.65086,-0.53764 1.21248,-0.40761 0.77069,-1.17701 -4.49535,-2.44153 -9.24121,-4.00901 -15.10552,-5.05676 -0.80901,0.28401 -0.80635,1.05991 -0.66793,1.91809 z"
         id="path1606"
         inkscape:connector-curvature="0"
         sodipodi:nodetypes="ccccc" /><path
         sodipodi:nodetypes="ccccc"
         inkscape:connector-curvature="0"
         id="path823"
         d="m 82.920936,153.63755 c 5.5486,0.77137 9.85293,2.19095 15.00276,4.31566 0.65086,-0.53763 1.21248,-0.4076 0.77069,-1.177 -4.49535,-2.44152 -9.24121,-4.00898 -15.10552,-5.05673 -0.80901,0.284 -0.80635,1.05991 -0.66793,1.91807 z"
         style="fill:#cccccc;stroke:#000000;stroke-width:0.7;stroke-linecap:butt;stroke-linejoin:miter;stroke-miterlimit:4;stroke-dasharray:none;stroke-opacity:1" /><path
         style="fill:#cccccc;stroke:#000000;stroke-width:0.7;stroke-linecap:butt;stroke-linejoin:miter;stroke-miterlimit:4;stroke-dasharray:none;stroke-opacity:1"
         d="m 82.920936,143.42534 c 5.5486,0.77136 9.85293,2.19095 15.00276,4.31566 0.65086,-0.53763 1.21248,-0.40761 0.77069,-1.177 -4.49535,-2.44152 -9.24121,-4.00898 -15.10552,-5.05673 -0.80901,0.284 -0.80635,1.0599 -0.66793,1.91807 z"
         id="path827"
         inkscape:connector-curvature="0"
         sodipodi:nodetypes="ccccc" /><path
         sodipodi:nodetypes="ccccc"
         inkscape:connector-curvature="0"
         id="path817-3"
         d="m 99.904276,147.88545 c -6.2408,0.96562 -11.54903,3.16623 -16.29035,6.09769 -1.02218,-0.27267 -1.91202,-0.62956 -1.3176,-1.93093 5.17397,-2.63742 10.63984,-4.85028 16.76948,-6.0977 0.53977,0.35972 1.219214,0.56708 0.83847,1.93094 z"
         style="fill:#ffffff;stroke:#000000;stroke-width:0.7;stroke-linecap:butt;stroke-linejoin:miter;stroke-miterlimit:4;stroke-dasharray:none;stroke-opacity:1" /><path
         style="fill:#ffffff;stroke:#000000;stroke-width:0.7;stroke-linecap:butt;stroke-linejoin:miter;stroke-miterlimit:4;stroke-dasharray:none;stroke-opacity:1"
         d="m 99.904276,158.34674 c -6.2408,0.96562 -11.54903,3.16623 -16.29035,6.09769 -1.02218,-0.27268 -1.91202,-0.62956 -1.3176,-1.93094 5.17397,-2.63741 10.63984,-4.85027 16.76948,-6.09769 0.53977,0.35972 1.219214,0.56708 0.83847,1.93094 z"
         id="path825"
         inkscape:connector-curvature="0"
         sodipodi:nodetypes="ccccc" /><path
         sodipodi:nodetypes="ccccc"
         inkscape:connector-curvature="0"
         id="path839-6"
         d="m 82.920936,132.964 c 5.5486,0.77137 9.85293,2.19096 15.00276,4.31568 0.65086,-0.53763 1.21248,-0.40761 0.77069,-1.177 -4.49535,-2.44154 -9.24121,-4.00901 -15.10552,-5.05676 -0.80901,0.284 -0.80635,1.05991 -0.66793,1.91808 z"
         style="fill:#cccccc;stroke:#000000;stroke-width:0.7;stroke-linecap:butt;stroke-linejoin:miter;stroke-miterlimit:4;stroke-dasharray:none;stroke-opacity:1" /><path
         style="fill:#ffffff;stroke:#000000;stroke-width:0.7;stroke-linecap:butt;stroke-linejoin:miter;stroke-miterlimit:4;stroke-dasharray:none;stroke-opacity:1"
         d="m 99.904276,137.67321 c -6.2408,0.96563 -11.54903,3.16625 -16.29035,6.09772 -1.02218,-0.27268 -1.91202,-0.62957 -1.3176,-1.93094 5.17397,-2.63743 10.63984,-4.8503 16.76948,-6.09773 0.53977,0.35973 1.219214,0.56708 0.83847,1.93095 z"
         id="path829"
         inkscape:connector-curvature="0"
         sodipodi:nodetypes="ccccc" /><path
         sodipodi:nodetypes="ccccc"
         inkscape:connector-curvature="0"
         id="path833"
         d="m 99.904276,127.46094 c -6.2408,0.96563 -11.54903,3.16625 -16.29035,6.09773 -1.02218,-0.27268 -1.91202,-0.62957 -1.3176,-1.93095 5.17397,-2.63743 10.63984,-4.8503 16.76948,-6.09773 0.53977,0.35973 1.219214,0.56708 0.83847,1.93095 z"
         style="fill:#ffffff;stroke:#000000;stroke-width:0.7;stroke-linecap:butt;stroke-linejoin:miter;stroke-miterlimit:4;stroke-dasharray:none;stroke-opacity:1" /><path
         inkscape:connector-curvature="0"
         id="path1610"
         d="m 84.691716,116.79684 a 1.2824262,0.80917558 0 0 0 -1.28234,-0.80928 1.2824262,0.80917558 0 0 0 -1.28289,0.80928 1.2824262,0.80917558 0 0 0 0.0496,0.22126 v 5.72229 a 1.2824262,0.80917558 0 0 0 -0.0496,0.21913 1.2824262,0.80917558 0 0 0 1.28289,0.80928 1.2824262,0.80917558 0 0 0 1.28234,-0.80928 1.2824262,0.80917558 0 0 0 -0.0205,-0.14231 h 0.0205 z"
         style="fill:#ffffff;stroke:#000000;stroke-width:0.591977;stroke-miterlimit:4;stroke-dasharray:none" /></g><rect
       style="fill:#ffffff;stroke:#000000;stroke-width:0.7;stroke-miterlimit:4;stroke-dasharray:none"
       id="rect815"
       width="41.159508"
       height="33.675961"
       x="32.959831"
       y="146.70848"
       inkscape:export-filename="/home/pv/Imagens/massa-mola-amortecedor-força.png"
       inkscape:export-xdpi="96"
       inkscape:export-ydpi="96"
       ry="4.8019919" /><g
       id="layer1-3"
       inkscape:label="Layer 1"
       transform="matrix(0,1.2889717,-1.1535276,0,191.37658,81.396089)"><rect
         style="fill:#ffffff;stroke:#000000;stroke-width:0.7;stroke-miterlimit:4;stroke-dasharray:none"
         id="rect1718"
         width="16.510056"
         height="2.1250565"
         x="101.72212"
         y="108.30544" /><rect
         style="fill:#ffffff;stroke:#000000;stroke-width:0.810846;stroke-miterlimit:4;stroke-dasharray:none"
         id="rect1731"
         width="15.094382"
         height="2.0999031"
         x="76.874931"
         y="108.44493" /><rect
         y="104.7997"
         x="92.554405"
         height="9.2270832"
         width="7.2063184"
         id="rect3464"
         style="fill:#808080;stroke:#808080;stroke-width:0.7" /><path
         style="fill:#ffffff;stroke:#000000;stroke-width:0.7;stroke-miterlimit:4;stroke-dasharray:none"
         d="m 88.29373,103.05019 v 2.14922 h 11.466999 v 8.82737 H 88.29373 v 2.14922 h 13.28911 v -13.12581 z"
         id="rect1720"
         inkscape:connector-curvature="0" /><rect
         style="fill:#ffffff;stroke:#000000;stroke-width:0.822563;stroke-miterlimit:4;stroke-dasharray:none"
         id="rect1729"
         width="2.6107433"
         height="7.8277359"
         x="91.626671"
         y="105.74422" /></g><g
       id="g48"><g
         id="g12"
         transform="rotate(-90,99.087208,182.40606)"><path
           style="fill:none;stroke:#000000;stroke-width:0.665001;stroke-dasharray:none"
           d="m 47.570646,107.07917 v 56.79537"
           id="path4" /><path
           style="fill:none;stroke:#000000;stroke-width:0.665001;stroke-dasharray:none"
           d="m 47.570646,109.61145 -7.77771,7.77771"
           id="path5" /><path
           style="fill:none;stroke:#000000;stroke-width:0.665001;stroke-dasharray:none"
           d="m 47.570646,130.30714 -7.77771,7.77771"
           id="path6" /><path
           style="fill:none;stroke:#000000;stroke-width:0.665001;stroke-dasharray:none"
           d="m 47.570646,116.51001 -7.77771,7.77771"
           id="path7" /><path
           style="fill:none;stroke:#000000;stroke-width:0.665001;stroke-dasharray:none"
           d="m 47.570646,123.40857 -7.77771,7.77771"
           id="path8" /><path
           style="fill:none;stroke:#000000;stroke-width:0.665001;stroke-dasharray:none"
           d="m 47.570646,137.2057 -7.77771,7.77771"
           id="path9" /><path
           style="fill:none;stroke:#000000;stroke-width:0.665001;stroke-dasharray:none"
           d="m 47.570646,144.10426 -7.77771,7.77771"
           id="path10" /><path
           style="fill:none;stroke:#000000;stroke-width:0.665001;stroke-dasharray:none"
           d="m 47.570646,151.00282 -7.77771,7.77771"
           id="path11" /><path
           style="fill:none;stroke:#000000;stroke-width:0.665001;stroke-dasharray:none"
           d="m 47.570646,157.90138 -7.77771,7.77771"
           id="path12" /></g></g><path
       style="fill:#000000;stroke:#000000;stroke-width:1.065;marker-end:url(#Triangle)"
       d="M 53.901336,146.51035 V 119.3788"
       id="path1" /><path
       style="fill:#000000;stroke:#000000;stroke-width:1.065"
       d="m 73.978686,164.9598 h 19.89646"
       id="path2" /><path
       style="fill:#000000;stroke:#000000;stroke-width:1.065;marker-end:url(#marker13)"
       d="M 84.288666,165.14068 V 142.71193"
       id="path3" /><g
       inkscape:label=""
       transform="translate(58.061486,110.24424)"
       id="g27"><g
   fill="#000000"
   fill-opacity="1"
   id="g11"
   transform="matrix(0.352778,0,0,0.352778,-1.10547,-0.704673)">&#10;    <g
   id="use10"
   transform="translate(1.993,20.559999)">&#10;      <path
   d="m 7.359375,-8.078125 h 2.375 c 1.890625,0 2.03125,0.421875 2.03125,1.140625 0,0.328125 -0.04687,0.671875 -0.171875,1.21875 -0.04687,0.09375 -0.07813,0.21875 -0.07813,0.265625 0,0.171875 0.109375,0.28125 0.28125,0.28125 0.203125,0 0.21875,-0.109375 0.328125,-0.5 l 1.4375,-5.78125 c 0,-0.09375 -0.07813,-0.25 -0.25,-0.25 -0.234375,0 -0.25,0.109375 -0.359375,0.53125 -0.515625,1.859375 -1.015625,2.375 -3.171875,2.375 h -2.25 L 9.14062,-15.21875 c 0.234375,-0.859375 0.28125,-0.9375 1.296875,-0.9375 H 13.75 c 3.09375,0 3.546875,0.921875 3.546875,2.671875 0,0.15625 0,0.703125 -0.07813,1.34375 -0.01563,0.09375 -0.0625,0.421875 -0.0625,0.515625 0,0.203125 0.109375,0.28125 0.265625,0.28125 0.171875,0 0.265625,-0.109375 0.328125,-0.546875 l 0.515625,-4.34375 c 0,-0.07813 0.04687,-0.3125 0.04687,-0.375 0,-0.265625 -0.21875,-0.265625 -0.671875,-0.265625 h -11.75 c -0.46875,0 -0.71875,0 -0.71875,0.4375 0,0.28125 0.1875,0.28125 0.609375,0.28125 1.53125,0 1.53125,0.171875 1.53125,0.4375 0,0.125 -0.03125,0.234375 -0.09375,0.5 L 3.859375,-1.828125 c -0.21875,0.859375 -0.265625,1.109375 -2,1.109375 -0.46875,0 -0.71875,0 -0.71875,0.453125 C 1.140625,0 1.359375,0 1.515625,0 c 0.46875,0 0.96875,-0.046875 1.4375,-0.046875 h 3.21875 C 6.71875,-0.046875 7.3125,0 7.859375,0 8.078125,0 8.375,0 8.375,-0.453125 8.375,-0.71875 8.234375,-0.71875 7.6875,-0.71875 c -1.96875,0 -2.015625,-0.171875 -2.015625,-0.546875 0,-0.125 0.046875,-0.328125 0.109375,-0.5 z m 0,0"
   id="path23" />&#10;    </g>&#10;  </g>&#10;  <g
   fill="#000000"
   fill-opacity="1"
   id="g22"
   transform="matrix(0.352778,0,0,0.352778,-1.10547,-0.704673)">&#10;    <g
   id="use11"
   transform="translate(21.075001,20.559999)">&#10;      <path
   d="m 7.578125,6.046875 c 0,-0.03125 0,-0.078125 -0.0625,-0.15625 -1.140625,-1.15625 -4.1875,-4.328125 -4.1875,-12.0625 0,-7.734375 2.984375,-10.875 4.203125,-12.109375 0,-0.03125 0.046875,-0.07813 0.046875,-0.15625 0,-0.07813 -0.0625,-0.125 -0.171875,-0.125 -0.265625,0 -2.375,1.828125 -3.59375,4.5625 -1.234375,2.75 -1.578125,5.421875 -1.578125,7.8125 0,1.78125 0.171875,4.796875 1.65625,8 1.1875,2.578125 3.21875,4.375 3.515625,4.375 0.125,0 0.171875,-0.046875 0.171875,-0.140625 z m 0,0"
   id="path24" />&#10;    </g>&#10;  </g>&#10;  <g
   fill="#000000"
   fill-opacity="1"
   id="g13"
   transform="matrix(0.352778,0,0,0.352778,-1.10547,-0.704673)">&#10;    <g
   id="use12"
   transform="translate(29.853001,20.559999)">&#10;      <path
   d="m 4.984375,-9.96875 h 2.28125 c 0.46875,0 0.71875,0 0.71875,-0.4375 0,-0.28125 -0.15625,-0.28125 -0.65625,-0.28125 H 5.15625 l 0.921875,-3.609375 c 0.09375,-0.34375 0.09375,-0.390625 0.09375,-0.578125 0,-0.390625 -0.328125,-0.609375 -0.640625,-0.609375 -0.203125,0 -0.765625,0.07813 -0.96875,0.859375 l -0.96875,3.9375 H 1.265625 c -0.5,0 -0.71875,0 -0.71875,0.484375 0,0.234375 0.171875,0.234375 0.640625,0.234375 h 2.203125 l -1.625,6.546875 c -0.203125,0.875 -0.28125,1.125 -0.28125,1.4375 0,1.171875 0.8125,2.234375 2.203125,2.234375 2.5,0 3.84375,-3.625 3.84375,-3.796875 0,-0.140625 -0.09375,-0.21875 -0.25,-0.21875 -0.046875,0 -0.140625,0 -0.1875,0.09375 C 7.0625,-3.640625 7.03125,-3.625 6.859375,-3.21875 6.34375,-1.984375 5.203125,-0.25 3.765625,-0.25 c -0.75,0 -0.796875,-0.625 -0.796875,-1.15625 0,-0.03125 0,-0.5 0.078125,-0.796875 z m 0,0"
   id="path25" />&#10;    </g>&#10;  </g>&#10;  <g
   fill="#000000"
   fill-opacity="1"
   id="g14"
   transform="matrix(0.352778,0,0,0.352778,-1.10547,-0.704673)">&#10;    <g
   id="use13"
   transform="translate(38.617001,20.559999)">&#10;      <path
   d="m 6.515625,-6.171875 c 0,-1.78125 -0.171875,-4.8125 -1.65625,-8 C 3.671875,-16.75 1.640625,-18.5625 1.34375,-18.5625 c -0.078125,0 -0.171875,0.03125 -0.171875,0.15625 0,0.04687 0.015625,0.0625 0.046875,0.125 1.1875,1.234375 4.203125,4.375 4.203125,12.09375 0,7.71875 -3,10.875 -4.203125,12.109375 C 1.1875,5.96875 1.171875,6 1.171875,6.046875 c 0,0.125 0.09375,0.140625 0.171875,0.140625 0.265625,0 2.375,-1.828125 3.59375,-4.546875 1.234375,-2.75 1.578125,-5.4375 1.578125,-7.8125 z m 0,0"
   id="path26" />&#10;    </g>&#10;  </g>&#10;  <g
   fill="#000000"
   fill-opacity="1"
   id="g15"
   transform="matrix(0.352778,0,0,0.352778,-1.10547,-0.704673)">&#10;    <g
   id="use14"
   transform="translate(54.284927,20.559999)">&#10;      <path
   d="m 15.9375,-7.953125 c 0.375,0 0.734375,0 0.734375,-0.421875 0,-0.453125 -0.421875,-0.453125 -0.84375,-0.453125 H 1.984375 c -0.421875,0 -0.84375,0 -0.84375,0.453125 0,0.421875 0.375,0.421875 0.75,0.421875 z m -0.109375,4.40625 c 0.421875,0 0.84375,0 0.84375,-0.4375 0,-0.421875 -0.359375,-0.421875 -0.734375,-0.421875 H 1.890625 c -0.375,0 -0.75,0 -0.75,0.421875 0,0.4375 0.421875,0.4375 0.84375,0.4375 z m 0,0"
   id="path27" />&#10;    </g>&#10;  </g>&#10;  <g
   fill="#000000"
   fill-opacity="1"
   id="g16"
   transform="matrix(0.352778,0,0,0.352778,-1.10547,-0.704673)">&#10;    <g
   id="use15"
   transform="translate(79.008003,20.559999)">&#10;      <path
   d="m 7.359375,-8.078125 h 2.375 c 1.890625,0 2.03125,0.421875 2.03125,1.140625 0,0.328125 -0.04687,0.671875 -0.171875,1.21875 -0.04687,0.09375 -0.07813,0.21875 -0.07813,0.265625 0,0.171875 0.109375,0.28125 0.28125,0.28125 0.203125,0 0.21875,-0.109375 0.328125,-0.5 l 1.4375,-5.78125 c 0,-0.09375 -0.07813,-0.25 -0.25,-0.25 -0.234375,0 -0.25,0.109375 -0.359375,0.53125 -0.515625,1.859375 -1.015625,2.375 -3.171875,2.375 h -2.25 L 9.14062,-15.21875 c 0.234375,-0.859375 0.28125,-0.9375 1.296875,-0.9375 H 13.75 c 3.09375,0 3.546875,0.921875 3.546875,2.671875 0,0.15625 0,0.703125 -0.07813,1.34375 -0.01563,0.09375 -0.0625,0.421875 -0.0625,0.515625 0,0.203125 0.109375,0.28125 0.265625,0.28125 0.171875,0 0.265625,-0.109375 0.328125,-0.546875 l 0.515625,-4.34375 c 0,-0.07813 0.04687,-0.3125 0.04687,-0.375 0,-0.265625 -0.21875,-0.265625 -0.671875,-0.265625 h -11.75 c -0.46875,0 -0.71875,0 -0.71875,0.4375 0,0.28125 0.1875,0.28125 0.609375,0.28125 1.53125,0 1.53125,0.171875 1.53125,0.4375 0,0.125 -0.03125,0.234375 -0.09375,0.5 L 3.859375,-1.828125 c -0.21875,0.859375 -0.265625,1.109375 -2,1.109375 -0.46875,0 -0.71875,0 -0.71875,0.453125 C 1.140625,0 1.359375,0 1.515625,0 c 0.46875,0 0.96875,-0.046875 1.4375,-0.046875 h 3.21875 C 6.71875,-0.046875 7.3125,0 7.859375,0 8.078125,0 8.375,0 8.375,-0.453125 8.375,-0.71875 8.234375,-0.71875 7.6875,-0.71875 c -1.96875,0 -2.015625,-0.171875 -2.015625,-0.546875 0,-0.125 0.046875,-0.328125 0.109375,-0.5 z m 0,0"
   id="path28" />&#10;    </g>&#10;  </g>&#10;  <g
   fill="#000000"
   fill-opacity="1"
   id="g17"
   transform="matrix(0.352778,0,0,0.352778,-1.10547,-0.704673)">&#10;    <g
   id="use16"
   transform="translate(94.719002,24.278)">&#10;      <path
   d="m 7.234375,-5.53125 c 0,-1.046875 -0.015625,-2.84375 -0.75,-4.21875 -0.625,-1.203125 -1.640625,-1.625 -2.546875,-1.625 -0.828125,0 -1.875,0.375 -2.53125,1.609375 -0.6875,1.296875 -0.75,2.890625 -0.75,4.234375 0,0.984375 0.015625,2.484375 0.546875,3.796875 0.75,1.765625 2.0625,2.015625 2.734375,2.015625 0.796875,0 2,-0.328125 2.703125,-1.96875 0.515625,-1.1875 0.59375,-2.578125 0.59375,-3.84375 z M 3.9375,0 C 2.84375,0 2.1875,-0.953125 1.953125,-2.25 1.75,-3.265625 1.75,-4.75 1.75,-5.71875 c 0,-1.328125 0,-2.421875 0.234375,-3.46875 0.328125,-1.46875 1.28125,-1.921875 1.953125,-1.921875 0.71875,0 1.625,0.46875 1.953125,1.875 C 6.109375,-8.25 6.125,-7.09375 6.125,-5.71875 c 0,1.125 0,2.5 -0.203125,3.515625 C 5.5625,-0.328125 4.546875,0 3.9375,0 Z m 0,0"
   id="path29" />&#10;    </g>&#10;  </g>&#10;  <g
   fill="#000000"
   fill-opacity="1"
   id="g19"
   transform="matrix(0.352778,0,0,0.352778,-1.10547,-0.704673)">&#10;    <g
   id="use17"
   transform="translate(103.113,20.559999)">&#10;      <path
   d="m 5.65625,-4.953125 c 0.421875,0.078125 1.078125,0.21875 1.234375,0.25 0.328125,0.09375 1.4375,0.484375 1.4375,1.6875 C 8.328125,-2.25 7.625,-0.25 4.765625,-0.25 4.234375,-0.25 2.375,-0.328125 1.890625,-1.6875 2.875,-1.5625 3.375,-2.328125 3.375,-2.875 c 0,-0.515625 -0.359375,-0.796875 -0.84375,-0.796875 -0.546875,0 -1.265625,0.421875 -1.265625,1.546875 0,1.453125 1.484375,2.375 3.46875,2.375 3.765625,0 4.875,-2.78125 4.875,-4.0625 0,-0.375 0,-1.0625 -0.78125,-1.859375 -0.625,-0.59375 -1.21875,-0.71875 -2.5625,-1 C 5.59375,-6.8125 4.53125,-7.03125 4.53125,-8.15625 c 0,-0.5 0.453125,-2.28125 2.796875,-2.28125 1.046875,0 2.0625,0.40625 2.3125,1.296875 -1.09375,0 -1.140625,0.9375 -1.140625,0.96875 0,0.515625 0.46875,0.65625 0.6875,0.65625 0.359375,0 1.046875,-0.265625 1.046875,-1.3125 0,-1.03125 -0.9375,-2.09375 -2.875,-2.09375 -3.25,0 -4.109375,2.546875 -4.109375,3.5625 0,1.875 1.828125,2.28125 2.40625,2.40625 z m 0,0"
   id="path30" />&#10;    </g>&#10;    <g
   id="use18"
   transform="translate(114.54481,20.559999)">&#10;      <path
   d="m 4.4375,-5.75 c 0.671875,0 2.359375,-0.046875 3.546875,-0.5 1.875,-0.71875 2.046875,-2.15625 2.046875,-2.59375 0,-1.09375 -0.9375,-2.078125 -2.578125,-2.078125 -2.59375,0 -6.34375,2.34375 -6.34375,6.765625 0,2.59375 1.5,4.40625 3.75,4.40625 3.375,0 5.5,-2.625 5.5,-2.953125 0,-0.140625 -0.15625,-0.265625 -0.25,-0.265625 -0.07813,0 -0.09375,0.015625 -0.328125,0.25 C 8.203125,-0.625 5.84375,-0.25 4.90625,-0.25 3.5,-0.25 2.75,-1.359375 2.75,-3.203125 2.75,-3.546875 2.75,-4.15625 3.125,-5.75 Z M 3.25,-6.25 c 1.0625,-3.8125 3.421875,-4.1875 4.203125,-4.1875 1.09375,0 1.84375,0.65625 1.84375,1.59375 0,2.59375 -3.96875,2.59375 -5.015625,2.59375 z m 0,0"
   id="path31" />&#10;    </g>&#10;    <g
   id="use19"
   transform="translate(125.7932,20.559999)">&#10;      <path
   d="M 5.109375,-7.265625 C 5.15625,-7.40625 5.78125,-8.65625 6.6875,-9.4375 c 0.640625,-0.59375 1.484375,-1 2.453125,-1 1,0 1.34375,0.75 1.34375,1.734375 0,1.421875 -1.015625,4.25 -1.515625,5.578125 C 8.75,-2.53125 8.625,-2.203125 8.625,-1.765625 c 0,1.125 0.765625,2.015625 1.953125,2.015625 2.3125,0 3.171875,-3.640625 3.171875,-3.796875 0,-0.125 -0.09375,-0.21875 -0.25,-0.21875 -0.21875,0 -0.234375,0.078125 -0.359375,0.5 C 12.5625,-1.234375 11.625,-0.25 10.65625,-0.25 c -0.25,0 -0.640625,-0.015625 -0.640625,-0.8125 0,-0.625 0.265625,-1.359375 0.421875,-1.71875 0.484375,-1.359375 1.53125,-4.125 1.53125,-5.546875 0,-1.484375 -0.859375,-2.59375 -2.75,-2.59375 -2.203125,0 -3.375,1.546875 -3.8125,2.171875 -0.078125,-1.40625 -1.09375,-2.171875 -2.1875,-2.171875 -0.796875,0 -1.328125,0.46875 -1.75,1.3125 -0.453125,0.890625 -0.796875,2.375 -0.796875,2.46875 0,0.109375 0.09375,0.234375 0.265625,0.234375 0.203125,0 0.234375,-0.03125 0.375,-0.609375 0.390625,-1.5 0.84375,-2.921875 1.828125,-2.921875 0.578125,0 0.78125,0.40625 0.78125,1.140625 0,0.546875 -0.25,1.515625 -0.421875,2.28125 L 2.796875,-4.34375 c -0.09375,0.484375 -0.375,1.59375 -0.5,2.046875 C 2.125,-1.65625 1.859375,-0.5 1.859375,-0.375 1.859375,-0.03125 2.125,0.25 2.5,0.25 c 0.296875,0 0.640625,-0.15625 0.84375,-0.515625 0.046875,-0.125 0.28125,-1 0.390625,-1.5 l 0.546875,-2.21875 z m 0,0"
   id="path32" />&#10;    </g>&#10;  </g>&#10;  <g
   fill="#000000"
   fill-opacity="1"
   id="g23"
   transform="matrix(0.352778,0,0,0.352778,-1.10547,-0.704673)">&#10;    <g
   id="use20"
   transform="translate(140.28101,20.559999)">&#10;      <path
   d="m 7.578125,6.046875 c 0,-0.03125 0,-0.078125 -0.0625,-0.15625 -1.140625,-1.15625 -4.1875,-4.328125 -4.1875,-12.0625 0,-7.734375 2.984375,-10.875 4.203125,-12.109375 0,-0.03125 0.046875,-0.07813 0.046875,-0.15625 0,-0.07813 -0.0625,-0.125 -0.171875,-0.125 -0.265625,0 -2.375,1.828125 -3.59375,4.5625 -1.234375,2.75 -1.578125,5.421875 -1.578125,7.8125 0,1.78125 0.171875,4.796875 1.65625,8 1.1875,2.578125 3.21875,4.375 3.515625,4.375 0.125,0 0.171875,-0.046875 0.171875,-0.140625 z m 0,0"
   id="path33" />&#10;    </g>&#10;  </g>&#10;  <g
   fill="#000000"
   fill-opacity="1"
   id="g24"
   transform="matrix(0.352778,0,0,0.352778,-1.10547,-0.704673)">&#10;    <g
   id="use21"
   transform="translate(149.05901,20.559999)">&#10;      <path
   d="m 14.71875,-9.3125 c 0,-0.71875 -0.203125,-1.640625 -1.0625,-1.640625 -0.5,0 -1.0625,0.625 -1.0625,1.109375 0,0.234375 0.09375,0.375 0.296875,0.59375 0.375,0.421875 0.84375,1.09375 0.84375,2.265625 0,0.890625 -0.546875,2.296875 -0.953125,3.0625 -0.6875,1.375 -1.828125,2.53125 -3.109375,2.53125 -1.5625,0 -2.15625,-0.984375 -2.4375,-2.375 0.28125,-0.640625 0.84375,-2.25 0.84375,-2.90625 0,-0.265625 -0.09375,-0.484375 -0.421875,-0.484375 -0.171875,0 -0.375,0.09375 -0.5,0.296875 -0.34375,0.546875 -0.65625,2.5 -0.640625,3.015625 -0.46875,0.921875 -1.8125,2.453125 -3.390625,2.453125 -1.65625,0 -2.109375,-1.453125 -2.109375,-2.875 0,-2.578125 1.609375,-4.828125 2.0625,-5.453125 0.25,-0.375 0.421875,-0.609375 0.421875,-0.671875 0,-0.171875 -0.109375,-0.4375 -0.328125,-0.4375 -0.390625,0 -0.515625,0.328125 -0.71875,0.625 C 1.1875,-8.25 0.296875,-5.5 0.296875,-3.125 c 0,1.53125 0.578125,3.375 2.421875,3.375 2.0625,0 3.359375,-1.765625 3.875,-2.703125 C 6.796875,-1.0625 7.53125,0.25 9.34375,0.25 c 1.875,0 3.078125,-1.65625 3.96875,-3.671875 0.640625,-1.4375 1.40625,-4.53125 1.40625,-5.890625 z m 0,0"
   id="path34" />&#10;    </g>&#10;  </g>&#10;  <g
   fill="#000000"
   fill-opacity="1"
   id="g25"
   transform="matrix(0.352778,0,0,0.352778,-1.10547,-0.704673)">&#10;    <g
   id="use22"
   transform="translate(165.06403,20.559999)">&#10;      <path
   d="m 4.984375,-9.96875 h 2.28125 c 0.46875,0 0.71875,0 0.71875,-0.4375 0,-0.28125 -0.15625,-0.28125 -0.65625,-0.28125 H 5.15625 l 0.921875,-3.609375 c 0.09375,-0.34375 0.09375,-0.390625 0.09375,-0.578125 0,-0.390625 -0.328125,-0.609375 -0.640625,-0.609375 -0.203125,0 -0.765625,0.07813 -0.96875,0.859375 l -0.96875,3.9375 H 1.265625 c -0.5,0 -0.71875,0 -0.71875,0.484375 0,0.234375 0.171875,0.234375 0.640625,0.234375 h 2.203125 l -1.625,6.546875 c -0.203125,0.875 -0.28125,1.125 -0.28125,1.4375 0,1.171875 0.8125,2.234375 2.203125,2.234375 2.5,0 3.84375,-3.625 3.84375,-3.796875 0,-0.140625 -0.09375,-0.21875 -0.25,-0.21875 -0.046875,0 -0.140625,0 -0.1875,0.09375 C 7.0625,-3.640625 7.03125,-3.625 6.859375,-3.21875 6.34375,-1.984375 5.203125,-0.25 3.765625,-0.25 c -0.75,0 -0.796875,-0.625 -0.796875,-1.15625 0,-0.03125 0,-0.5 0.078125,-0.796875 z m 0,0"
   id="path35" />&#10;    </g>&#10;  </g>&#10;  <g
   fill="#000000"
   fill-opacity="1"
   id="g26"
   transform="matrix(0.352778,0,0,0.352778,-1.10547,-0.704673)">&#10;    <g
   id="use23"
   transform="translate(173.826,20.559999)">&#10;      <path
   d="m 6.515625,-6.171875 c 0,-1.78125 -0.171875,-4.8125 -1.65625,-8 C 3.671875,-16.75 1.640625,-18.5625 1.34375,-18.5625 c -0.078125,0 -0.171875,0.03125 -0.171875,0.15625 0,0.04687 0.015625,0.0625 0.046875,0.125 1.1875,1.234375 4.203125,4.375 4.203125,12.09375 0,7.71875 -3,10.875 -4.203125,12.109375 C 1.1875,5.96875 1.171875,6 1.171875,6.046875 c 0,0.125 0.09375,0.140625 0.171875,0.140625 0.265625,0 2.375,-1.828125 3.59375,-4.546875 1.234375,-2.75 1.578125,-5.4375 1.578125,-7.8125 z m 0,0"
   id="path36" />&#10;    </g>&#10;  </g>&#10;</g><g
       inkscape:label=""
       transform="translate(50.464656,161.61331)"
       id="g37"><g
   fill="#000000"
   fill-opacity="1"
   id="g2"
   transform="matrix(0.352778,0,0,0.352778,-0.940109,-0.614583)">&#10;    <g
   id="use1"
   transform="translate(1.993,12.664)">&#10;      <path
   d="M 5.109375,-7.265625 C 5.15625,-7.40625 5.78125,-8.65625 6.6875,-9.4375 c 0.640625,-0.59375 1.484375,-1 2.453125,-1 1,0 1.34375,0.75 1.34375,1.734375 0,0.15625 0,0.65625 -0.296875,1.8125 l -0.625,2.546875 c -0.1875,0.75 -0.671875,2.578125 -0.71875,2.859375 -0.09375,0.375 -0.25,1.015625 -0.25,1.109375 0,0.34375 0.28125,0.625 0.65625,0.625 0.734375,0 0.859375,-0.578125 1.078125,-1.46875 l 1.5,-5.921875 c 0.04687,-0.1875 1.328125,-3.296875 4.0625,-3.296875 0.984375,0 1.328125,0.75 1.328125,1.734375 0,1.390625 -0.96875,4.09375 -1.5,5.578125 -0.234375,0.59375 -0.359375,0.921875 -0.359375,1.359375 0,1.125 0.765625,2.015625 1.96875,2.015625 C 19.625,0.25 20.5,-3.390625 20.5,-3.546875 c 0,-0.125 -0.109375,-0.21875 -0.25,-0.21875 -0.234375,0 -0.25,0.078125 -0.375,0.5 C 19.296875,-1.28125 18.390625,-0.25 17.390625,-0.25 17.15625,-0.25 16.75,-0.265625 16.75,-1.0625 c 0,-0.640625 0.296875,-1.4375 0.40625,-1.71875 0.4375,-1.1875 1.546875,-4.109375 1.546875,-5.546875 0,-1.484375 -0.859375,-2.59375 -2.75,-2.59375 -1.65625,0 -3,0.9375 -3.984375,2.390625 -0.07813,-1.328125 -0.890625,-2.390625 -2.75,-2.390625 -2.203125,0 -3.375,1.546875 -3.8125,2.171875 -0.078125,-1.40625 -1.09375,-2.171875 -2.1875,-2.171875 -0.71875,0 -1.28125,0.34375 -1.75,1.28125 -0.453125,0.890625 -0.796875,2.40625 -0.796875,2.5 0,0.109375 0.09375,0.234375 0.265625,0.234375 0.203125,0 0.234375,-0.03125 0.375,-0.609375 0.375,-1.453125 0.84375,-2.921875 1.828125,-2.921875 0.578125,0 0.78125,0.40625 0.78125,1.140625 0,0.546875 -0.25,1.515625 -0.421875,2.28125 L 2.796875,-4.34375 c -0.09375,0.484375 -0.375,1.59375 -0.5,2.046875 C 2.125,-1.65625 1.859375,-0.5 1.859375,-0.375 1.859375,-0.03125 2.125,0.25 2.5,0.25 c 0.296875,0 0.640625,-0.15625 0.84375,-0.515625 0.046875,-0.125 0.28125,-1 0.390625,-1.5 l 0.546875,-2.21875 z m 0,0"
   id="path37" />&#10;    </g>&#10;  </g>&#10;</g><g
       inkscape:label=""
       transform="translate(90.438466,134.66264)"
       id="g41"><g
   fill="#000000"
   fill-opacity="1"
   id="g5"
   transform="matrix(0.352778,0,0,0.352778,-0.945621,-0.704673)">&#10;    <g
   id="use4"
   transform="translate(1.993,20.559999)">&#10;      <path
   d="m 11.75,-10.109375 c -0.796875,0.140625 -1.09375,0.734375 -1.09375,1.21875 0,0.59375 0.46875,0.78125 0.8125,0.78125 0.75,0 1.265625,-0.640625 1.265625,-1.3125 0,-1.03125 -1.1875,-1.5 -2.234375,-1.5 -1.5,0 -2.34375,1.484375 -2.5625,1.953125 -0.578125,-1.859375 -2.109375,-1.953125 -2.5625,-1.953125 -2.53125,0 -3.859375,3.234375 -3.859375,3.78125 0,0.109375 0.09375,0.234375 0.265625,0.234375 0.203125,0 0.25,-0.15625 0.296875,-0.25 0.84375,-2.75 2.5,-3.28125 3.21875,-3.28125 1.125,0 1.34375,1.046875 1.34375,1.640625 C 6.640625,-8.25 6.5,-7.6875 6.1875,-6.5 l -0.828125,3.40625 c -0.375,1.484375 -1.09375,2.84375 -2.40625,2.84375 -0.125,0 -0.75,0 -1.265625,-0.3125 0.890625,-0.1875 1.09375,-0.921875 1.09375,-1.21875 0,-0.5 -0.375,-0.796875 -0.84375,-0.796875 -0.59375,0 -1.25,0.515625 -1.25,1.3125 0,1.046875 1.171875,1.515625 2.234375,1.515625 1.1875,0 2.03125,-0.9375 2.5625,-1.953125 C 5.875,-0.25 7.109375,0.25 8.03125,0.25 c 2.53125,0 3.859375,-3.25 3.859375,-3.796875 0,-0.125 -0.09375,-0.21875 -0.25,-0.21875 -0.21875,0 -0.234375,0.125 -0.3125,0.328125 -0.671875,2.171875 -2.109375,3.1875 -3.21875,3.1875 -0.875,0 -1.34375,-0.640625 -1.34375,-1.65625 0,-0.546875 0.09375,-0.9375 0.5,-2.578125 L 8.125,-7.859375 C 8.5,-9.34375 9.34375,-10.4375 10.484375,-10.4375 c 0.04687,0 0.734375,0 1.265625,0.328125 z m 0,0"
   id="path38" />&#10;    </g>&#10;  </g>&#10;  <g
   fill="#000000"
   fill-opacity="1"
   id="g6"
   transform="matrix(0.352778,0,0,0.352778,-0.945621,-0.704673)">&#10;    <g
   id="use5"
   transform="translate(15.785,20.559999)">&#10;      <path
   d="m 7.578125,6.046875 c 0,-0.03125 0,-0.078125 -0.0625,-0.15625 -1.140625,-1.15625 -4.1875,-4.328125 -4.1875,-12.0625 0,-7.734375 2.984375,-10.875 4.203125,-12.109375 0,-0.03125 0.046875,-0.07813 0.046875,-0.15625 0,-0.07813 -0.0625,-0.125 -0.171875,-0.125 -0.265625,0 -2.375,1.828125 -3.59375,4.5625 -1.234375,2.75 -1.578125,5.421875 -1.578125,7.8125 0,1.78125 0.171875,4.796875 1.65625,8 1.1875,2.578125 3.21875,4.375 3.515625,4.375 0.125,0 0.171875,-0.046875 0.171875,-0.140625 z m 0,0"
   id="path39" />&#10;    </g>&#10;  </g>&#10;  <g
   fill="#000000"
   fill-opacity="1"
   id="g7"
   transform="matrix(0.352778,0,0,0.352778,-0.945621,-0.704673)">&#10;    <g
   id="use6"
   transform="translate(24.562,20.559999)">&#10;      <path
   d="m 4.984375,-9.96875 h 2.28125 c 0.46875,0 0.71875,0 0.71875,-0.4375 0,-0.28125 -0.15625,-0.28125 -0.65625,-0.28125 H 5.15625 l 0.921875,-3.609375 c 0.09375,-0.34375 0.09375,-0.390625 0.09375,-0.578125 0,-0.390625 -0.328125,-0.609375 -0.640625,-0.609375 -0.203125,0 -0.765625,0.07813 -0.96875,0.859375 l -0.96875,3.9375 H 1.265625 c -0.5,0 -0.71875,0 -0.71875,0.484375 0,0.234375 0.171875,0.234375 0.640625,0.234375 h 2.203125 l -1.625,6.546875 c -0.203125,0.875 -0.28125,1.125 -0.28125,1.4375 0,1.171875 0.8125,2.234375 2.203125,2.234375 2.5,0 3.84375,-3.625 3.84375,-3.796875 0,-0.140625 -0.09375,-0.21875 -0.25,-0.21875 -0.046875,0 -0.140625,0 -0.1875,0.09375 C 7.0625,-3.640625 7.03125,-3.625 6.859375,-3.21875 6.34375,-1.984375 5.203125,-0.25 3.765625,-0.25 c -0.75,0 -0.796875,-0.625 -0.796875,-1.15625 0,-0.03125 0,-0.5 0.078125,-0.796875 z m 0,0"
   id="path40" />&#10;    </g>&#10;  </g>&#10;  <g
   fill="#000000"
   fill-opacity="1"
   id="g8"
   transform="matrix(0.352778,0,0,0.352778,-0.945621,-0.704673)">&#10;    <g
   id="use7"
   transform="translate(33.327,20.559999)">&#10;      <path
   d="m 6.515625,-6.171875 c 0,-1.78125 -0.171875,-4.8125 -1.65625,-8 C 3.671875,-16.75 1.640625,-18.5625 1.34375,-18.5625 c -0.078125,0 -0.171875,0.03125 -0.171875,0.15625 0,0.04687 0.015625,0.0625 0.046875,0.125 1.1875,1.234375 4.203125,4.375 4.203125,12.09375 0,7.71875 -3,10.875 -4.203125,12.109375 C 1.1875,5.96875 1.171875,6 1.171875,6.046875 c 0,0.125 0.09375,0.140625 0.171875,0.140625 0.265625,0 2.375,-1.828125 3.59375,-4.546875 1.234375,-2.75 1.578125,-5.4375 1.578125,-7.8125 z m 0,0"
   id="path41" />&#10;    </g>&#10;  </g>&#10;</g><g
       inkscape:label=""
       transform="translate(17.364169,204.66203)"
       id="g44"><g
   fill="#000000"
   fill-opacity="1"
   id="g43"
   transform="matrix(0.352778,0,0,0.352778,-1.18264,-0.706217)">&#10;    <g
   id="g42"
   transform="translate(1.993,19.205)">&#10;      <path
   d="m 6.96875,-16.578125 c 0.015625,-0.09375 0.0625,-0.25 0.0625,-0.375 0,-0.25 -0.234375,-0.25 -0.296875,-0.25 -0.015625,0 -0.90625,0.07813 -1.359375,0.125 -0.421875,0.03125 -0.796875,0.07813 -1.234375,0.109375 -0.59375,0.04687 -0.765625,0.0625 -0.765625,0.515625 0,0.25 0.25,0.25 0.484375,0.25 1.265625,0 1.265625,0.21875 1.265625,0.46875 0,0.09375 0,0.140625 -0.125,0.59375 L 1.46875,-0.96875 c -0.109375,0.375 -0.109375,0.421875 -0.109375,0.578125 0,0.546875 0.421875,0.640625 0.671875,0.640625 0.6875,0 0.84375,-0.546875 1.046875,-1.3125 l 1.15625,-4.640625 C 6.015625,-5.5 7.09375,-4.765625 7.09375,-3.5625 c 0,0.140625 0,0.234375 -0.078125,0.609375 -0.109375,0.375 -0.109375,0.671875 -0.109375,0.796875 0,1.4375 0.953125,2.40625 2.21875,2.40625 1.140625,0 1.734375,-1.046875 1.921875,-1.390625 0.53125,-0.921875 0.84375,-2.296875 0.84375,-2.40625 0,-0.125 -0.09375,-0.21875 -0.25,-0.21875 -0.21875,0 -0.234375,0.09375 -0.34375,0.5 -0.34375,1.28125 -0.859375,3.015625 -2.125,3.015625 -0.5,0 -0.828125,-0.25 -0.828125,-1.1875 0,-0.46875 0.109375,-1.015625 0.203125,-1.390625 0.109375,-0.4375 0.109375,-0.46875 0.109375,-0.765625 0,-1.46875 -1.328125,-2.28125 -3.59375,-2.578125 0.890625,-0.546875 1.78125,-1.515625 2.125,-1.875 1.40625,-1.59375 2.375,-2.390625 3.515625,-2.390625 0.578125,0 0.71875,0.15625 0.890625,0.296875 -0.90625,0.109375 -1.265625,0.75 -1.265625,1.25 0,0.59375 0.46875,0.78125 0.828125,0.78125 0.671875,0 1.265625,-0.5625 1.265625,-1.359375 0,-0.71875 -0.578125,-1.453125 -1.6875,-1.453125 -1.359375,0 -2.484375,0.953125 -4.234375,2.9375 -0.25,0.296875 -1.171875,1.25 -2.09375,1.59375 z m 0,0"
   id="path42" />&#10;    </g>&#10;  </g>&#10;</g><g
       inkscape:label=""
       transform="translate(76.149186,203.93852)"
       id="g47"><g
   fill="#000000"
   fill-opacity="1"
   id="g46"
   transform="matrix(0.352778,0,0,0.352778,-1.05035,-0.614583)">&#10;    <g
   id="g45"
   transform="translate(1.993,12.664)">&#10;      <path
   d="m 9.6875,-9.3125 c -0.46875,0 -0.6875,0 -1.03125,0.296875 C 8.5,-8.890625 8.234375,-8.53125 8.234375,-8.125 c 0,0.5 0.359375,0.796875 0.828125,0.796875 0.609375,0 1.265625,-0.5 1.265625,-1.5 0,-1.1875 -1.140625,-2.09375 -2.84375,-2.09375 -3.25,0 -6.5,3.53125 -6.5,7.0625 0,2.15625 1.34375,4.109375 3.875,4.109375 3.375,0 5.5,-2.625 5.5,-2.953125 0,-0.140625 -0.15625,-0.265625 -0.25,-0.265625 -0.07813,0 -0.09375,0.015625 -0.328125,0.25 C 8.203125,-0.625 5.84375,-0.25 4.90625,-0.25 c -1.703125,0 -2.25,-1.484375 -2.25,-2.71875 0,-0.875 0.421875,-3.28125 1.3125,-4.96875 0.640625,-1.15625 1.984375,-2.5 3.546875,-2.5 0.3125,0 1.671875,0.04687 2.171875,1.125 z m 0,0"
   id="path44" />&#10;    </g>&#10;  </g>&#10;</g><rect
       style="fill:#ffffff;stroke:#000000;stroke-width:0.7;stroke-miterlimit:4;stroke-dasharray:none"
       id="rect48"
       width="41.159508"
       height="33.675961"
       x="142.49721"
       y="146.70848"
       inkscape:export-filename="/home/pv/Imagens/massa-mola-amortecedor-força.png"
       inkscape:export-xdpi="96"
       inkscape:export-ydpi="96"
       ry="4.8019919" /><g
       id="g57"
       transform="translate(109.53762)"><g
         id="g56"
         transform="rotate(-90,99.087208,182.40606)"><path
           style="fill:none;stroke:#000000;stroke-width:0.665001;stroke-dasharray:none"
           d="m 47.570646,107.07917 v 56.79537"
           id="path48" /><path
           style="fill:none;stroke:#000000;stroke-width:0.665001;stroke-dasharray:none"
           d="m 47.570646,109.61145 -7.77771,7.77771"
           id="path49" /><path
           style="fill:none;stroke:#000000;stroke-width:0.665001;stroke-dasharray:none"
           d="m 47.570646,130.30714 -7.77771,7.77771"
           id="path50" /><path
           style="fill:none;stroke:#000000;stroke-width:0.665001;stroke-dasharray:none"
           d="m 47.570646,116.51001 -7.77771,7.77771"
           id="path51" /><path
           style="fill:none;stroke:#000000;stroke-width:0.665001;stroke-dasharray:none"
           d="m 47.570646,123.40857 -7.77771,7.77771"
           id="path52" /><path
           style="fill:none;stroke:#000000;stroke-width:0.665001;stroke-dasharray:none"
           d="m 47.570646,137.2057 -7.77771,7.77771"
           id="path53" /><path
           style="fill:none;stroke:#000000;stroke-width:0.665001;stroke-dasharray:none"
           d="m 47.570646,144.10426 -7.77771,7.77771"
           id="path54" /><path
           style="fill:none;stroke:#000000;stroke-width:0.665001;stroke-dasharray:none"
           d="m 47.570646,151.00282 -7.77771,7.77771"
           id="path55" /><path
           style="fill:none;stroke:#000000;stroke-width:0.665001;stroke-dasharray:none"
           d="m 47.570646,157.90138 -7.77771,7.77771"
           id="path56" /></g></g><path
       style="fill:#000000;stroke:#000000;stroke-width:1.065;marker-end:url(#Triangle)"
       d="M 163.43926,146.51035 V 119.3788"
       id="path57" /><path
       style="fill:#000000;stroke:#000000;stroke-width:1.065;marker-end:url(#Triangle)"
       d="m 151.39403,179.97259 v 16.27893"
       id="path59" /><path
       style="fill:#000000;stroke:#000000;stroke-width:1.065;marker-end:url(#Triangle)"
       d="m 174.67751,179.97259 v 16.27893"
       id="path60" /><path
       style="fill:#000000;stroke:#000000;stroke-width:1.065;marker-end:url(#Triangle)"
       d="M 174.67751,233.90029 V 217.62136"
       id="path61" /><path
       style="fill:#000000;stroke:#000000;stroke-width:1.065;marker-end:url(#Triangle)"
       d="M 151.39403,233.90029 V 217.62136"
       id="path62" /><g
       inkscape:label=""
       transform="translate(169.11995,113.50049)"
       id="g76"><g
   fill="#000000"
   fill-opacity="1"
   id="g10"
   transform="matrix(0.352778,0,0,0.352778,-1.10547,-0.704673)">&#10;    <g
   id="use9"
   transform="translate(1.993,20.559999)">&#10;      <path
   d="m 7.359375,-8.078125 h 2.375 c 1.890625,0 2.03125,0.421875 2.03125,1.140625 0,0.328125 -0.04687,0.671875 -0.171875,1.21875 -0.04687,0.09375 -0.07813,0.21875 -0.07813,0.265625 0,0.171875 0.109375,0.28125 0.28125,0.28125 0.203125,0 0.21875,-0.109375 0.328125,-0.5 l 1.4375,-5.78125 c 0,-0.09375 -0.07813,-0.25 -0.25,-0.25 -0.234375,0 -0.25,0.109375 -0.359375,0.53125 -0.515625,1.859375 -1.015625,2.375 -3.171875,2.375 h -2.25 L 9.14062,-15.21875 c 0.234375,-0.859375 0.28125,-0.9375 1.296875,-0.9375 H 13.75 c 3.09375,0 3.546875,0.921875 3.546875,2.671875 0,0.15625 0,0.703125 -0.07813,1.34375 -0.01563,0.09375 -0.0625,0.421875 -0.0625,0.515625 0,0.203125 0.109375,0.28125 0.265625,0.28125 0.171875,0 0.265625,-0.109375 0.328125,-0.546875 l 0.515625,-4.34375 c 0,-0.07813 0.04687,-0.3125 0.04687,-0.375 0,-0.265625 -0.21875,-0.265625 -0.671875,-0.265625 h -11.75 c -0.46875,0 -0.71875,0 -0.71875,0.4375 0,0.28125 0.1875,0.28125 0.609375,0.28125 1.53125,0 1.53125,0.171875 1.53125,0.4375 0,0.125 -0.03125,0.234375 -0.09375,0.5 L 3.859375,-1.828125 c -0.21875,0.859375 -0.265625,1.109375 -2,1.109375 -0.46875,0 -0.71875,0 -0.71875,0.453125 C 1.140625,0 1.359375,0 1.515625,0 c 0.46875,0 0.96875,-0.046875 1.4375,-0.046875 h 3.21875 C 6.71875,-0.046875 7.3125,0 7.859375,0 8.078125,0 8.375,0 8.375,-0.453125 8.375,-0.71875 8.234375,-0.71875 7.6875,-0.71875 c -1.96875,0 -2.015625,-0.171875 -2.015625,-0.546875 0,-0.125 0.046875,-0.328125 0.109375,-0.5 z m 0,0"
   id="path17" />&#10;    </g>&#10;  </g>&#10;  <g
   fill="#000000"
   fill-opacity="1"
   id="g63"
   transform="matrix(0.352778,0,0,0.352778,-1.10547,-0.704673)">&#10;    <g
   id="g62"
   transform="translate(17.704,24.278)">&#10;      <path
   d="m 7.234375,-5.53125 c 0,-1.046875 -0.015625,-2.84375 -0.75,-4.21875 -0.625,-1.203125 -1.640625,-1.625 -2.546875,-1.625 -0.828125,0 -1.875,0.375 -2.53125,1.609375 -0.6875,1.296875 -0.75,2.890625 -0.75,4.234375 0,0.984375 0.015625,2.484375 0.546875,3.796875 0.75,1.765625 2.0625,2.015625 2.734375,2.015625 0.796875,0 2,-0.328125 2.703125,-1.96875 0.515625,-1.1875 0.59375,-2.578125 0.59375,-3.84375 z M 3.9375,0 C 2.84375,0 2.1875,-0.953125 1.953125,-2.25 1.75,-3.265625 1.75,-4.75 1.75,-5.71875 c 0,-1.328125 0,-2.421875 0.234375,-3.46875 0.328125,-1.46875 1.28125,-1.921875 1.953125,-1.921875 0.71875,0 1.625,0.46875 1.953125,1.875 C 6.109375,-8.25 6.125,-7.09375 6.125,-5.71875 c 0,1.125 0,2.5 -0.203125,3.515625 C 5.5625,-0.328125 4.546875,0 3.9375,0 Z m 0,0"
   id="path18" />&#10;    </g>&#10;  </g>&#10;  <g
   fill="#000000"
   fill-opacity="1"
   id="g67"
   transform="matrix(0.352778,0,0,0.352778,-1.10547,-0.704673)">&#10;    <g
   id="g64"
   transform="translate(26.097,20.559999)">&#10;      <path
   d="m 5.65625,-4.953125 c 0.421875,0.078125 1.078125,0.21875 1.234375,0.25 0.328125,0.09375 1.4375,0.484375 1.4375,1.6875 C 8.328125,-2.25 7.625,-0.25 4.765625,-0.25 4.234375,-0.25 2.375,-0.328125 1.890625,-1.6875 2.875,-1.5625 3.375,-2.328125 3.375,-2.875 c 0,-0.515625 -0.359375,-0.796875 -0.84375,-0.796875 -0.546875,0 -1.265625,0.421875 -1.265625,1.546875 0,1.453125 1.484375,2.375 3.46875,2.375 3.765625,0 4.875,-2.78125 4.875,-4.0625 0,-0.375 0,-1.0625 -0.78125,-1.859375 -0.625,-0.59375 -1.21875,-0.71875 -2.5625,-1 C 5.59375,-6.8125 4.53125,-7.03125 4.53125,-8.15625 c 0,-0.5 0.453125,-2.28125 2.796875,-2.28125 1.046875,0 2.0625,0.40625 2.3125,1.296875 -1.09375,0 -1.140625,0.9375 -1.140625,0.96875 0,0.515625 0.46875,0.65625 0.6875,0.65625 0.359375,0 1.046875,-0.265625 1.046875,-1.3125 0,-1.03125 -0.9375,-2.09375 -2.875,-2.09375 -3.25,0 -4.109375,2.546875 -4.109375,3.5625 0,1.875 1.828125,2.28125 2.40625,2.40625 z m 0,0"
   id="path19" />&#10;    </g>&#10;    <g
   id="g65"
   transform="translate(37.528812,20.559999)">&#10;      <path
   d="m 4.4375,-5.75 c 0.671875,0 2.359375,-0.046875 3.546875,-0.5 1.875,-0.71875 2.046875,-2.15625 2.046875,-2.59375 0,-1.09375 -0.9375,-2.078125 -2.578125,-2.078125 -2.59375,0 -6.34375,2.34375 -6.34375,6.765625 0,2.59375 1.5,4.40625 3.75,4.40625 3.375,0 5.5,-2.625 5.5,-2.953125 0,-0.140625 -0.15625,-0.265625 -0.25,-0.265625 -0.07813,0 -0.09375,0.015625 -0.328125,0.25 C 8.203125,-0.625 5.84375,-0.25 4.90625,-0.25 3.5,-0.25 2.75,-1.359375 2.75,-3.203125 2.75,-3.546875 2.75,-4.15625 3.125,-5.75 Z M 3.25,-6.25 c 1.0625,-3.8125 3.421875,-4.1875 4.203125,-4.1875 1.09375,0 1.84375,0.65625 1.84375,1.59375 0,2.59375 -3.96875,2.59375 -5.015625,2.59375 z m 0,0"
   id="path20" />&#10;    </g>&#10;    <g
   id="g66"
   transform="translate(48.777195,20.559999)">&#10;      <path
   d="M 5.109375,-7.265625 C 5.15625,-7.40625 5.78125,-8.65625 6.6875,-9.4375 c 0.640625,-0.59375 1.484375,-1 2.453125,-1 1,0 1.34375,0.75 1.34375,1.734375 0,1.421875 -1.015625,4.25 -1.515625,5.578125 C 8.75,-2.53125 8.625,-2.203125 8.625,-1.765625 c 0,1.125 0.765625,2.015625 1.953125,2.015625 2.3125,0 3.171875,-3.640625 3.171875,-3.796875 0,-0.125 -0.09375,-0.21875 -0.25,-0.21875 -0.21875,0 -0.234375,0.078125 -0.359375,0.5 C 12.5625,-1.234375 11.625,-0.25 10.65625,-0.25 c -0.25,0 -0.640625,-0.015625 -0.640625,-0.8125 0,-0.625 0.265625,-1.359375 0.421875,-1.71875 0.484375,-1.359375 1.53125,-4.125 1.53125,-5.546875 0,-1.484375 -0.859375,-2.59375 -2.75,-2.59375 -2.203125,0 -3.375,1.546875 -3.8125,2.171875 -0.078125,-1.40625 -1.09375,-2.171875 -2.1875,-2.171875 -0.796875,0 -1.328125,0.46875 -1.75,1.3125 -0.453125,0.890625 -0.796875,2.375 -0.796875,2.46875 0,0.109375 0.09375,0.234375 0.265625,0.234375 0.203125,0 0.234375,-0.03125 0.375,-0.609375 0.390625,-1.5 0.84375,-2.921875 1.828125,-2.921875 0.578125,0 0.78125,0.40625 0.78125,1.140625 0,0.546875 -0.25,1.515625 -0.421875,2.28125 L 2.796875,-4.34375 c -0.09375,0.484375 -0.375,1.59375 -0.5,2.046875 C 2.125,-1.65625 1.859375,-0.5 1.859375,-0.375 1.859375,-0.03125 2.125,0.25 2.5,0.25 c 0.296875,0 0.640625,-0.15625 0.84375,-0.515625 0.046875,-0.125 0.28125,-1 0.390625,-1.5 l 0.546875,-2.21875 z m 0,0"
   id="path21" />&#10;    </g>&#10;  </g>&#10;  <g
   fill="#000000"
   fill-opacity="1"
   id="g69"
   transform="matrix(0.352778,0,0,0.352778,-1.10547,-0.704673)">&#10;    <g
   id="g68"
   transform="translate(63.265999,20.559999)">&#10;      <path
   d="m 7.578125,6.046875 c 0,-0.03125 0,-0.078125 -0.0625,-0.15625 -1.140625,-1.15625 -4.1875,-4.328125 -4.1875,-12.0625 0,-7.734375 2.984375,-10.875 4.203125,-12.109375 0,-0.03125 0.046875,-0.07813 0.046875,-0.15625 0,-0.07813 -0.0625,-0.125 -0.171875,-0.125 -0.265625,0 -2.375,1.828125 -3.59375,4.5625 -1.234375,2.75 -1.578125,5.421875 -1.578125,7.8125 0,1.78125 0.171875,4.796875 1.65625,8 1.1875,2.578125 3.21875,4.375 3.515625,4.375 0.125,0 0.171875,-0.046875 0.171875,-0.140625 z m 0,0"
   id="path22" />&#10;    </g>&#10;  </g>&#10;  <g
   fill="#000000"
   fill-opacity="1"
   id="g71"
   transform="matrix(0.352778,0,0,0.352778,-1.10547,-0.704673)">&#10;    <g
   id="g70"
   transform="translate(72.043999,20.559999)">&#10;      <path
   d="m 14.71875,-9.3125 c 0,-0.71875 -0.203125,-1.640625 -1.0625,-1.640625 -0.5,0 -1.0625,0.625 -1.0625,1.109375 0,0.234375 0.09375,0.375 0.296875,0.59375 0.375,0.421875 0.84375,1.09375 0.84375,2.265625 0,0.890625 -0.546875,2.296875 -0.953125,3.0625 -0.6875,1.375 -1.828125,2.53125 -3.109375,2.53125 -1.5625,0 -2.15625,-0.984375 -2.4375,-2.375 0.28125,-0.640625 0.84375,-2.25 0.84375,-2.90625 0,-0.265625 -0.09375,-0.484375 -0.421875,-0.484375 -0.171875,0 -0.375,0.09375 -0.5,0.296875 -0.34375,0.546875 -0.65625,2.5 -0.640625,3.015625 -0.46875,0.921875 -1.8125,2.453125 -3.390625,2.453125 -1.65625,0 -2.109375,-1.453125 -2.109375,-2.875 0,-2.578125 1.609375,-4.828125 2.0625,-5.453125 0.25,-0.375 0.421875,-0.609375 0.421875,-0.671875 0,-0.171875 -0.109375,-0.4375 -0.328125,-0.4375 -0.390625,0 -0.515625,0.328125 -0.71875,0.625 C 1.1875,-8.25 0.296875,-5.5 0.296875,-3.125 c 0,1.53125 0.578125,3.375 2.421875,3.375 2.0625,0 3.359375,-1.765625 3.875,-2.703125 C 6.796875,-1.0625 7.53125,0.25 9.34375,0.25 c 1.875,0 3.078125,-1.65625 3.96875,-3.671875 0.640625,-1.4375 1.40625,-4.53125 1.40625,-5.890625 z m 0,0"
   id="path69" />&#10;    </g>&#10;  </g>&#10;  <g
   fill="#000000"
   fill-opacity="1"
   id="g73"
   transform="matrix(0.352778,0,0,0.352778,-1.10547,-0.704673)">&#10;    <g
   id="g72"
   transform="translate(88.049026,20.559999)">&#10;      <path
   d="m 4.984375,-9.96875 h 2.28125 c 0.46875,0 0.71875,0 0.71875,-0.4375 0,-0.28125 -0.15625,-0.28125 -0.65625,-0.28125 H 5.15625 l 0.921875,-3.609375 c 0.09375,-0.34375 0.09375,-0.390625 0.09375,-0.578125 0,-0.390625 -0.328125,-0.609375 -0.640625,-0.609375 -0.203125,0 -0.765625,0.07813 -0.96875,0.859375 l -0.96875,3.9375 H 1.265625 c -0.5,0 -0.71875,0 -0.71875,0.484375 0,0.234375 0.171875,0.234375 0.640625,0.234375 h 2.203125 l -1.625,6.546875 c -0.203125,0.875 -0.28125,1.125 -0.28125,1.4375 0,1.171875 0.8125,2.234375 2.203125,2.234375 2.5,0 3.84375,-3.625 3.84375,-3.796875 0,-0.140625 -0.09375,-0.21875 -0.25,-0.21875 -0.046875,0 -0.140625,0 -0.1875,0.09375 C 7.0625,-3.640625 7.03125,-3.625 6.859375,-3.21875 6.34375,-1.984375 5.203125,-0.25 3.765625,-0.25 c -0.75,0 -0.796875,-0.625 -0.796875,-1.15625 0,-0.03125 0,-0.5 0.078125,-0.796875 z m 0,0"
   id="path71" />&#10;    </g>&#10;  </g>&#10;  <g
   fill="#000000"
   fill-opacity="1"
   id="g75"
   transform="matrix(0.352778,0,0,0.352778,-1.10547,-0.704673)">&#10;    <g
   id="g74"
   transform="translate(96.810997,20.559999)">&#10;      <path
   d="m 6.515625,-6.171875 c 0,-1.78125 -0.171875,-4.8125 -1.65625,-8 C 3.671875,-16.75 1.640625,-18.5625 1.34375,-18.5625 c -0.078125,0 -0.171875,0.03125 -0.171875,0.15625 0,0.04687 0.015625,0.0625 0.046875,0.125 1.1875,1.234375 4.203125,4.375 4.203125,12.09375 0,7.71875 -3,10.875 -4.203125,12.109375 C 1.1875,5.96875 1.171875,6 1.171875,6.046875 c 0,0.125 0.09375,0.140625 0.171875,0.140625 0.265625,0 2.375,-1.828125 3.59375,-4.546875 1.234375,-2.75 1.578125,-5.4375 1.578125,-7.8125 z m 0,0"
   id="path73" />&#10;    </g>&#10;  </g>&#10;</g><g
       inkscape:label=""
       transform="translate(136.92385,191.27759)"
       id="g77"><g
   fill="#000000"
   fill-opacity="1"
   id="g3"
   transform="matrix(0.352778,0,0,0.352778,-1.18264,-0.706217)">&#10;    <g
   id="use2"
   transform="translate(1.993,19.205)">&#10;      <path
   d="m 6.96875,-16.578125 c 0.015625,-0.09375 0.0625,-0.25 0.0625,-0.375 0,-0.25 -0.234375,-0.25 -0.296875,-0.25 -0.015625,0 -0.90625,0.07813 -1.359375,0.125 -0.421875,0.03125 -0.796875,0.07813 -1.234375,0.109375 -0.59375,0.04687 -0.765625,0.0625 -0.765625,0.515625 0,0.25 0.25,0.25 0.484375,0.25 1.265625,0 1.265625,0.21875 1.265625,0.46875 0,0.09375 0,0.140625 -0.125,0.59375 L 1.46875,-0.96875 c -0.109375,0.375 -0.109375,0.421875 -0.109375,0.578125 0,0.546875 0.421875,0.640625 0.671875,0.640625 0.6875,0 0.84375,-0.546875 1.046875,-1.3125 l 1.15625,-4.640625 C 6.015625,-5.5 7.09375,-4.765625 7.09375,-3.5625 c 0,0.140625 0,0.234375 -0.078125,0.609375 -0.109375,0.375 -0.109375,0.671875 -0.109375,0.796875 0,1.4375 0.953125,2.40625 2.21875,2.40625 1.140625,0 1.734375,-1.046875 1.921875,-1.390625 0.53125,-0.921875 0.84375,-2.296875 0.84375,-2.40625 0,-0.125 -0.09375,-0.21875 -0.25,-0.21875 -0.21875,0 -0.234375,0.09375 -0.34375,0.5 -0.34375,1.28125 -0.859375,3.015625 -2.125,3.015625 -0.5,0 -0.828125,-0.25 -0.828125,-1.1875 0,-0.46875 0.109375,-1.015625 0.203125,-1.390625 0.109375,-0.4375 0.109375,-0.46875 0.109375,-0.765625 0,-1.46875 -1.328125,-2.28125 -3.59375,-2.578125 0.890625,-0.546875 1.78125,-1.515625 2.125,-1.875 1.40625,-1.59375 2.375,-2.390625 3.515625,-2.390625 0.578125,0 0.71875,0.15625 0.890625,0.296875 -0.90625,0.109375 -1.265625,0.75 -1.265625,1.25 0,0.59375 0.46875,0.78125 0.828125,0.78125 0.671875,0 1.265625,-0.5625 1.265625,-1.359375 0,-0.71875 -0.578125,-1.453125 -1.6875,-1.453125 -1.359375,0 -2.484375,0.953125 -4.234375,2.9375 -0.25,0.296875 -1.171875,1.25 -2.09375,1.59375 z m 0,0"
   id="path76" />&#10;    </g>&#10;  </g>&#10;  <g
   fill="#000000"
   fill-opacity="1"
   id="g4"
   transform="matrix(0.352778,0,0,0.352778,-1.18264,-0.706217)">&#10;    <g
   id="use3"
   transform="translate(15.435044,19.205)">&#10;      <path
   d="m 11.75,-10.109375 c -0.796875,0.140625 -1.09375,0.734375 -1.09375,1.21875 0,0.59375 0.46875,0.78125 0.8125,0.78125 0.75,0 1.265625,-0.640625 1.265625,-1.3125 0,-1.03125 -1.1875,-1.5 -2.234375,-1.5 -1.5,0 -2.34375,1.484375 -2.5625,1.953125 -0.578125,-1.859375 -2.109375,-1.953125 -2.5625,-1.953125 -2.53125,0 -3.859375,3.234375 -3.859375,3.78125 0,0.109375 0.09375,0.234375 0.265625,0.234375 0.203125,0 0.25,-0.15625 0.296875,-0.25 0.84375,-2.75 2.5,-3.28125 3.21875,-3.28125 1.125,0 1.34375,1.046875 1.34375,1.640625 C 6.640625,-8.25 6.5,-7.6875 6.1875,-6.5 l -0.828125,3.40625 c -0.375,1.484375 -1.09375,2.84375 -2.40625,2.84375 -0.125,0 -0.75,0 -1.265625,-0.3125 0.890625,-0.1875 1.09375,-0.921875 1.09375,-1.21875 0,-0.5 -0.375,-0.796875 -0.84375,-0.796875 -0.59375,0 -1.25,0.515625 -1.25,1.3125 0,1.046875 1.171875,1.515625 2.234375,1.515625 1.1875,0 2.03125,-0.9375 2.5625,-1.953125 C 5.875,-0.25 7.109375,0.25 8.03125,0.25 c 2.53125,0 3.859375,-3.25 3.859375,-3.796875 0,-0.125 -0.09375,-0.21875 -0.25,-0.21875 -0.21875,0 -0.234375,0.125 -0.3125,0.328125 -0.671875,2.171875 -2.109375,3.1875 -3.21875,3.1875 -0.875,0 -1.34375,-0.640625 -1.34375,-1.65625 0,-0.546875 0.09375,-0.9375 0.5,-2.578125 L 8.125,-7.859375 C 8.5,-9.34375 9.34375,-10.4375 10.484375,-10.4375 c 0.04687,0 0.734375,0 1.265625,0.328125 z m 0,0"
   id="path77" />&#10;    </g>&#10;  </g>&#10;</g><g
       inkscape:label=""
       transform="translate(138.00911,215.87686)"
       id="g82"><g
   fill="#000000"
   fill-opacity="1"
   id="g79"
   transform="matrix(0.352778,0,0,0.352778,-1.18264,-0.706217)">&#10;    <g
   id="g78"
   transform="translate(1.993,19.205)">&#10;      <path
   d="m 6.96875,-16.578125 c 0.015625,-0.09375 0.0625,-0.25 0.0625,-0.375 0,-0.25 -0.234375,-0.25 -0.296875,-0.25 -0.015625,0 -0.90625,0.07813 -1.359375,0.125 -0.421875,0.03125 -0.796875,0.07813 -1.234375,0.109375 -0.59375,0.04687 -0.765625,0.0625 -0.765625,0.515625 0,0.25 0.25,0.25 0.484375,0.25 1.265625,0 1.265625,0.21875 1.265625,0.46875 0,0.09375 0,0.140625 -0.125,0.59375 L 1.46875,-0.96875 c -0.109375,0.375 -0.109375,0.421875 -0.109375,0.578125 0,0.546875 0.421875,0.640625 0.671875,0.640625 0.6875,0 0.84375,-0.546875 1.046875,-1.3125 l 1.15625,-4.640625 C 6.015625,-5.5 7.09375,-4.765625 7.09375,-3.5625 c 0,0.140625 0,0.234375 -0.078125,0.609375 -0.109375,0.375 -0.109375,0.671875 -0.109375,0.796875 0,1.4375 0.953125,2.40625 2.21875,2.40625 1.140625,0 1.734375,-1.046875 1.921875,-1.390625 0.53125,-0.921875 0.84375,-2.296875 0.84375,-2.40625 0,-0.125 -0.09375,-0.21875 -0.25,-0.21875 -0.21875,0 -0.234375,0.09375 -0.34375,0.5 -0.34375,1.28125 -0.859375,3.015625 -2.125,3.015625 -0.5,0 -0.828125,-0.25 -0.828125,-1.1875 0,-0.46875 0.109375,-1.015625 0.203125,-1.390625 0.109375,-0.4375 0.109375,-0.46875 0.109375,-0.765625 0,-1.46875 -1.328125,-2.28125 -3.59375,-2.578125 0.890625,-0.546875 1.78125,-1.515625 2.125,-1.875 1.40625,-1.59375 2.375,-2.390625 3.515625,-2.390625 0.578125,0 0.71875,0.15625 0.890625,0.296875 -0.90625,0.109375 -1.265625,0.75 -1.265625,1.25 0,0.59375 0.46875,0.78125 0.828125,0.78125 0.671875,0 1.265625,-0.5625 1.265625,-1.359375 0,-0.71875 -0.578125,-1.453125 -1.6875,-1.453125 -1.359375,0 -2.484375,0.953125 -4.234375,2.9375 -0.25,0.296875 -1.171875,1.25 -2.09375,1.59375 z m 0,0"
   id="path78" />&#10;    </g>&#10;  </g>&#10;  <g
   fill="#000000"
   fill-opacity="1"
   id="g81"
   transform="matrix(0.352778,0,0,0.352778,-1.18264,-0.706217)">&#10;    <g
   id="g80"
   transform="translate(15.435044,19.205)">&#10;      <path
   d="m 11.75,-10.109375 c -0.796875,0.140625 -1.09375,0.734375 -1.09375,1.21875 0,0.59375 0.46875,0.78125 0.8125,0.78125 0.75,0 1.265625,-0.640625 1.265625,-1.3125 0,-1.03125 -1.1875,-1.5 -2.234375,-1.5 -1.5,0 -2.34375,1.484375 -2.5625,1.953125 -0.578125,-1.859375 -2.109375,-1.953125 -2.5625,-1.953125 -2.53125,0 -3.859375,3.234375 -3.859375,3.78125 0,0.109375 0.09375,0.234375 0.265625,0.234375 0.203125,0 0.25,-0.15625 0.296875,-0.25 0.84375,-2.75 2.5,-3.28125 3.21875,-3.28125 1.125,0 1.34375,1.046875 1.34375,1.640625 C 6.640625,-8.25 6.5,-7.6875 6.1875,-6.5 l -0.828125,3.40625 c -0.375,1.484375 -1.09375,2.84375 -2.40625,2.84375 -0.125,0 -0.75,0 -1.265625,-0.3125 0.890625,-0.1875 1.09375,-0.921875 1.09375,-1.21875 0,-0.5 -0.375,-0.796875 -0.84375,-0.796875 -0.59375,0 -1.25,0.515625 -1.25,1.3125 0,1.046875 1.171875,1.515625 2.234375,1.515625 1.1875,0 2.03125,-0.9375 2.5625,-1.953125 C 5.875,-0.25 7.109375,0.25 8.03125,0.25 c 2.53125,0 3.859375,-3.25 3.859375,-3.796875 0,-0.125 -0.09375,-0.21875 -0.25,-0.21875 -0.21875,0 -0.234375,0.125 -0.3125,0.328125 -0.671875,2.171875 -2.109375,3.1875 -3.21875,3.1875 -0.875,0 -1.34375,-0.640625 -1.34375,-1.65625 0,-0.546875 0.09375,-0.9375 0.5,-2.578125 L 8.125,-7.859375 C 8.5,-9.34375 9.34375,-10.4375 10.484375,-10.4375 c 0.04687,0 0.734375,0 1.265625,0.328125 z m 0,0"
   id="path79" />&#10;    </g>&#10;  </g>&#10;</g><g
       inkscape:label=""
       transform="translate(180.33433,191.45847)"
       id="g89"><g
   fill="#000000"
   fill-opacity="1"
   id="g84"
   transform="matrix(0.352778,0,0,0.352778,-1.05035,-0.695237)">&#10;    <g
   id="g83"
   transform="translate(1.993,18.253)">&#10;      <path
   d="m 9.6875,-9.3125 c -0.46875,0 -0.6875,0 -1.03125,0.296875 C 8.5,-8.890625 8.234375,-8.53125 8.234375,-8.125 c 0,0.5 0.359375,0.796875 0.828125,0.796875 0.609375,0 1.265625,-0.5 1.265625,-1.5 0,-1.1875 -1.140625,-2.09375 -2.84375,-2.09375 -3.25,0 -6.5,3.53125 -6.5,7.0625 0,2.15625 1.34375,4.109375 3.875,4.109375 3.375,0 5.5,-2.625 5.5,-2.953125 0,-0.140625 -0.15625,-0.265625 -0.25,-0.265625 -0.07813,0 -0.09375,0.015625 -0.328125,0.25 C 8.203125,-0.625 5.84375,-0.25 4.90625,-0.25 c -1.703125,0 -2.25,-1.484375 -2.25,-2.71875 0,-0.875 0.421875,-3.28125 1.3125,-4.96875 0.640625,-1.15625 1.984375,-2.5 3.546875,-2.5 0.3125,0 1.671875,0.04687 2.171875,1.125 z m 0,0"
   id="path82" />&#10;    </g>&#10;  </g>&#10;  <g
   fill="#000000"
   fill-opacity="1"
   id="g86"
   transform="matrix(0.352778,0,0,0.352778,-1.05035,-0.695237)">&#10;    <g
   id="g85"
   transform="translate(16.914,18.252001)">&#10;      <path
   d="m 4.09375,-15.265625 c 0,-0.59375 -0.46875,-1.015625 -1,-1.015625 -0.59375,0 -1.015625,0.46875 -1.015625,1.015625 0,0.59375 0.46875,1.015625 1,1.015625 0.59375,0 1.015625,-0.46875 1.015625,-1.015625 z m 0,0"
   id="path84" />&#10;    </g>&#10;  </g>&#10;  <g
   fill="#000000"
   fill-opacity="1"
   id="g88"
   transform="matrix(0.352778,0,0,0.352778,-1.05035,-0.695237)">&#10;    <g
   id="g87"
   transform="translate(12.438,18.253)">&#10;      <path
   d="m 11.75,-10.109375 c -0.796875,0.140625 -1.09375,0.734375 -1.09375,1.21875 0,0.59375 0.46875,0.78125 0.8125,0.78125 0.75,0 1.265625,-0.640625 1.265625,-1.3125 0,-1.03125 -1.1875,-1.5 -2.234375,-1.5 -1.5,0 -2.34375,1.484375 -2.5625,1.953125 -0.578125,-1.859375 -2.109375,-1.953125 -2.5625,-1.953125 -2.53125,0 -3.859375,3.234375 -3.859375,3.78125 0,0.109375 0.09375,0.234375 0.265625,0.234375 0.203125,0 0.25,-0.15625 0.296875,-0.25 0.84375,-2.75 2.5,-3.28125 3.21875,-3.28125 1.125,0 1.34375,1.046875 1.34375,1.640625 C 6.640625,-8.25 6.5,-7.6875 6.1875,-6.5 l -0.828125,3.40625 c -0.375,1.484375 -1.09375,2.84375 -2.40625,2.84375 -0.125,0 -0.75,0 -1.265625,-0.3125 0.890625,-0.1875 1.09375,-0.921875 1.09375,-1.21875 0,-0.5 -0.375,-0.796875 -0.84375,-0.796875 -0.59375,0 -1.25,0.515625 -1.25,1.3125 0,1.046875 1.171875,1.515625 2.234375,1.515625 1.1875,0 2.03125,-0.9375 2.5625,-1.953125 C 5.875,-0.25 7.109375,0.25 8.03125,0.25 c 2.53125,0 3.859375,-3.25 3.859375,-3.796875 0,-0.125 -0.09375,-0.21875 -0.25,-0.21875 -0.21875,0 -0.234375,0.125 -0.3125,0.328125 -0.671875,2.171875 -2.109375,3.1875 -3.21875,3.1875 -0.875,0 -1.34375,-0.640625 -1.34375,-1.65625 0,-0.546875 0.09375,-0.9375 0.5,-2.578125 L 8.125,-7.859375 C 8.5,-9.34375 9.34375,-10.4375 10.484375,-10.4375 c 0.04687,0 0.734375,0 1.265625,0.328125 z m 0,0"
   id="path86" />&#10;    </g>&#10;  </g>&#10;</g><g
       inkscape:label=""
       transform="translate(180.51521,219.4944)"
       id="g96"><g
   fill="#000000"
   fill-opacity="1"
   id="g91"
   transform="matrix(0.352778,0,0,0.352778,-1.05035,-0.695237)">&#10;    <g
   id="g90"
   transform="translate(1.993,18.253)">&#10;      <path
   d="m 9.6875,-9.3125 c -0.46875,0 -0.6875,0 -1.03125,0.296875 C 8.5,-8.890625 8.234375,-8.53125 8.234375,-8.125 c 0,0.5 0.359375,0.796875 0.828125,0.796875 0.609375,0 1.265625,-0.5 1.265625,-1.5 0,-1.1875 -1.140625,-2.09375 -2.84375,-2.09375 -3.25,0 -6.5,3.53125 -6.5,7.0625 0,2.15625 1.34375,4.109375 3.875,4.109375 3.375,0 5.5,-2.625 5.5,-2.953125 0,-0.140625 -0.15625,-0.265625 -0.25,-0.265625 -0.07813,0 -0.09375,0.015625 -0.328125,0.25 C 8.203125,-0.625 5.84375,-0.25 4.90625,-0.25 c -1.703125,0 -2.25,-1.484375 -2.25,-2.71875 0,-0.875 0.421875,-3.28125 1.3125,-4.96875 0.640625,-1.15625 1.984375,-2.5 3.546875,-2.5 0.3125,0 1.671875,0.04687 2.171875,1.125 z m 0,0"
   id="path89" />&#10;    </g>&#10;  </g>&#10;  <g
   fill="#000000"
   fill-opacity="1"
   id="g93"
   transform="matrix(0.352778,0,0,0.352778,-1.05035,-0.695237)">&#10;    <g
   id="g92"
   transform="translate(16.914,18.252001)">&#10;      <path
   d="m 4.09375,-15.265625 c 0,-0.59375 -0.46875,-1.015625 -1,-1.015625 -0.59375,0 -1.015625,0.46875 -1.015625,1.015625 0,0.59375 0.46875,1.015625 1,1.015625 0.59375,0 1.015625,-0.46875 1.015625,-1.015625 z m 0,0"
   id="path91" />&#10;    </g>&#10;  </g>&#10;  <g
   fill="#000000"
   fill-opacity="1"
   id="g95"
   transform="matrix(0.352778,0,0,0.352778,-1.05035,-0.695237)">&#10;    <g
   id="g94"
   transform="translate(12.438,18.253)">&#10;      <path
   d="m 11.75,-10.109375 c -0.796875,0.140625 -1.09375,0.734375 -1.09375,1.21875 0,0.59375 0.46875,0.78125 0.8125,0.78125 0.75,0 1.265625,-0.640625 1.265625,-1.3125 0,-1.03125 -1.1875,-1.5 -2.234375,-1.5 -1.5,0 -2.34375,1.484375 -2.5625,1.953125 -0.578125,-1.859375 -2.109375,-1.953125 -2.5625,-1.953125 -2.53125,0 -3.859375,3.234375 -3.859375,3.78125 0,0.109375 0.09375,0.234375 0.265625,0.234375 0.203125,0 0.25,-0.15625 0.296875,-0.25 0.84375,-2.75 2.5,-3.28125 3.21875,-3.28125 1.125,0 1.34375,1.046875 1.34375,1.640625 C 6.640625,-8.25 6.5,-7.6875 6.1875,-6.5 l -0.828125,3.40625 c -0.375,1.484375 -1.09375,2.84375 -2.40625,2.84375 -0.125,0 -0.75,0 -1.265625,-0.3125 0.890625,-0.1875 1.09375,-0.921875 1.09375,-1.21875 0,-0.5 -0.375,-0.796875 -0.84375,-0.796875 -0.59375,0 -1.25,0.515625 -1.25,1.3125 0,1.046875 1.171875,1.515625 2.234375,1.515625 1.1875,0 2.03125,-0.9375 2.5625,-1.953125 C 5.875,-0.25 7.109375,0.25 8.03125,0.25 c 2.53125,0 3.859375,-3.25 3.859375,-3.796875 0,-0.125 -0.09375,-0.21875 -0.25,-0.21875 -0.21875,0 -0.234375,0.125 -0.3125,0.328125 -0.671875,2.171875 -2.109375,3.1875 -3.21875,3.1875 -0.875,0 -1.34375,-0.640625 -1.34375,-1.65625 0,-0.546875 0.09375,-0.9375 0.5,-2.578125 L 8.125,-7.859375 C 8.5,-9.34375 9.34375,-10.4375 10.484375,-10.4375 c 0.04687,0 0.734375,0 1.265625,0.328125 z m 0,0"
   id="path93" />&#10;    </g>&#10;  </g>&#10;</g></g></svg>
